<svg xmlns="http://www.w3.org/2000/svg" xmlns:xlink="http://www.w3.org/1999/xlink" x="0" y="0" width="701.3333740234375" height="301.3333435058594" style="
        width:701.3333740234375px;
        height:301.3333435058594px;
        background: transparent;
        fill: none;
">
        
        
        <svg xmlns="http://www.w3.org/2000/svg" class="role-diagram-draw-area" style="overflow: visible;"><g class="shapes-region" style="stroke: black; fill: none;"><g class="composite-shape" data-amt="diagram/shapes/plot" transform="matrix(1,0,0,1,140.6666259765625,-4.16668701171875)"><g><g/><g><g class="test-xti" style="font-family: Asana-Math, Asana;"><line x1="0" y1="211.410624041061" x2="391" y2="211.410624041061" fill="none" stroke="rgb(50,50,50)" stroke-opacity="1" stroke-width="1"/><line x1="38.29525476737459" y1="207.410624041061" x2="38.29525476737459" y2="215.410624041061" fill="none" stroke="rgb(50,50,50)" stroke-opacity="1" stroke-width="1"/><line x1="181.07031668511078" y1="207.410624041061" x2="181.07031668511078" y2="215.410624041061" fill="none" stroke="rgb(50,50,50)" stroke-opacity="1" stroke-width="1"/><line x1="252.45784764397885" y1="207.410624041061" x2="252.45784764397885" y2="215.410624041061" fill="none" stroke="rgb(50,50,50)" stroke-opacity="1" stroke-width="1"/><line x1="323.845378602847" y1="207.410624041061" x2="323.845378602847" y2="215.410624041061" fill="none" stroke="rgb(50,50,50)" stroke-opacity="1" stroke-width="1"/><path d="M386,207.810624041061 L394,211.410624041061 L386,215.010624041061 Z" stroke="none" stroke-width="1" fill="rgb(50,50,50)" fill-opacity="1"/></g><g class="test-yti" style="font-family: Asana-Math, Asana;"><line x1="109.68278572624268" y1="4" x2="109.68278572624268" y2="304" fill="none" stroke="rgb(50,50,50)" stroke-opacity="1" stroke-width="1"/><line x1="105.68278572624268" y1="277.410624041061" x2="113.68278572624268" y2="277.410624041061" fill="none" stroke="rgb(50,50,50)" stroke-opacity="1" stroke-width="1"/><line x1="105.68278572624268" y1="145.410624041061" x2="113.68278572624268" y2="145.410624041061" fill="none" stroke="rgb(50,50,50)" stroke-opacity="1" stroke-width="1"/><line x1="105.68278572624268" y1="79.41062404106103" x2="113.68278572624268" y2="79.41062404106103" fill="none" stroke="rgb(50,50,50)" stroke-opacity="1" stroke-width="1"/><line x1="105.68278572624268" y1="13.410624041061055" x2="113.68278572624268" y2="13.410624041061055" fill="none" stroke="rgb(50,50,50)" stroke-opacity="1" stroke-width="1"/><path d="M106.08278572624269,9 L109.68278572624268,1 L113.28278572624268,9 Z" stroke="none" stroke-width="1" fill="rgb(50,50,50)" fill-opacity="1"/></g><g class="test-plot-expression"><defs><clipPath id="cplqw6urkmjdg-full-view"><rect x="1" y="1" width="393" height="302"/></clipPath></defs><g clip-path="url(#cplqw6urkmjdg-full-view)"><path d=" M0.00,339.57 L0.50,338.06 L1.00,336.57 L1.50,335.09 L2.00,333.61 L2.50,332.15 L3.00,330.69 L3.50,329.25 L4.01,327.81 L4.51,326.39 L5.01,324.97 L5.51,323.56 L6.01,322.17 L6.51,320.78 L7.01,319.40 L7.51,318.03 L8.01,316.67 L8.51,315.32 L9.01,313.98 L9.51,312.65 L10.01,311.33 L10.51,310.02 L11.01,308.71 L11.51,307.42 L12.02,306.14 L12.52,304.86 L13.02,303.60 L13.52,302.34 L14.02,301.09 L14.52,299.85 L15.02,298.62 L15.52,297.40 L16.02,296.19 L16.52,294.99 L17.02,293.80 L17.52,292.61 L18.02,291.44 L18.52,290.27 L19.02,289.11 L19.52,287.96 L20.03,286.82 L20.53,285.69 L21.03,284.57 L21.53,283.46 L22.03,282.35 L22.53,281.25 L23.03,280.17 L23.53,279.09 L24.03,278.02 L24.53,276.96 L25.03,275.90 L25.53,274.86 L26.03,273.82 L26.53,272.79 L27.03,271.77 L27.53,270.76 L28.04,269.76 L28.54,268.77 L29.04,267.78 L29.54,266.80 L30.04,265.83 L30.54,264.87 L31.04,263.92 L31.54,262.97 L32.04,262.04 L32.54,261.11 L33.04,260.19 L33.54,259.27 L34.04,258.37 L34.54,257.47 L35.04,256.59 L35.54,255.71 L36.05,254.83 L36.55,253.97 L37.05,253.11 L37.55,252.26 L38.05,251.42 L38.55,250.59 L39.05,249.76 L39.55,248.95 L40.05,248.14 L40.55,247.33 L41.05,246.54 L41.55,245.75 L42.05,244.97 L42.55,244.20 L43.05,243.44 L43.56,242.68 L44.06,241.93 L44.56,241.19 L45.06,240.46 L45.56,239.73 L46.06,239.01 L46.56,238.30 L47.06,237.59 L47.56,236.90 L48.06,236.21 L48.56,235.52 L49.06,234.85 L49.56,234.18 L50.06,233.52 L50.56,232.87 L51.06,232.22 L51.57,231.58 L52.07,230.95 L52.57,230.32 L53.07,229.70 L53.57,229.09 L54.07,228.49 L54.57,227.89 L55.07,227.30 L55.57,226.71 L56.07,226.14 L56.57,225.57 L57.07,225.00 L57.57,224.45 L58.07,223.90 L58.57,223.35 L59.07,222.82 L59.58,222.29 L60.08,221.76 L60.58,221.25 L61.08,220.73 L61.58,220.23 L62.08,219.73 L62.58,219.24 L63.08,218.76 L63.58,218.28 L64.08,217.81 L64.58,217.35 L65.08,216.89 L65.58,216.43 L66.08,215.99 L66.58,215.55 L67.08,215.12 L67.59,214.69 L68.09,214.27 L68.59,213.85 L69.09,213.44 L69.59,213.04 L70.09,212.64 L70.59,212.25 L71.09,211.87 L71.59,211.49 L72.09,211.12 L72.59,210.75 L73.09,210.39 L73.59,210.04 L74.09,209.69 L74.59,209.35 L75.10,209.01 L75.60,208.68 L76.10,208.35 L76.60,208.03 L77.10,207.72 L77.60,207.41 L78.10,207.11 L78.60,206.81 L79.10,206.52 L79.60,206.23 L80.10,205.95 L80.60,205.67 L81.10,205.40 L81.60,205.14 L82.10,204.88 L82.60,204.63 L83.11,204.38 L83.61,204.14 L84.11,203.90 L84.61,203.67 L85.11,203.44 L85.61,203.22 L86.11,203.00 L86.61,202.79 L87.11,202.59 L87.61,202.39 L88.11,202.19 L88.61,202.00 L89.11,201.81 L89.61,201.63 L90.11,201.46 L90.61,201.29 L91.12,201.12 L91.62,200.96 L92.12,200.81 L92.62,200.65 L93.12,200.51 L93.62,200.37 L94.12,200.23 L94.62,200.10 L95.12,199.97 L95.62,199.85 L96.12,199.73 L96.62,199.62 L97.12,199.51 L97.62,199.40 L98.12,199.30 L98.62,199.21 L99.13,199.12 L99.63,199.03 L100.13,198.95 L100.63,198.87 L101.13,198.80 L101.63,198.73 L102.13,198.67 L102.63,198.61 L103.13,198.55 L103.63,198.50 L104.13,198.46 L104.63,198.41 L105.13,198.37 L105.63,198.34 L106.13,198.31 L106.63,198.28 L107.14,198.26 L107.64,198.24 L108.14,198.23 L108.64,198.22 L109.14,198.21 L109.64,198.21 L110.14,198.21 L110.64,198.22 L111.14,198.23 L111.64,198.24 L112.14,198.26 L112.64,198.28 L113.14,198.30 L113.64,198.33 L114.14,198.36 L114.65,198.40 L115.15,198.44 L115.65,198.48 L116.15,198.53 L116.65,198.58 L117.15,198.63 L117.65,198.69 L118.15,198.75 L118.65,198.81 L119.15,198.88 L119.65,198.95 L120.15,199.02 L120.65,199.10 L121.15,199.18 L121.65,199.26 L122.15,199.35 L122.66,199.44 L123.16,199.53 L123.66,199.63 L124.16,199.73 L124.66,199.83 L125.16,199.94 L125.66,200.05 L126.16,200.16 L126.66,200.27 L127.16,200.39 L127.66,200.51 L128.16,200.64 L128.66,200.76 L129.16,200.89 L129.66,201.02 L130.16,201.16 L130.67,201.30 L131.17,201.44 L131.67,201.58 L132.17,201.73 L132.67,201.88 L133.17,202.03 L133.67,202.18 L134.17,202.34 L134.67,202.50 L135.17,202.66 L135.67,202.82 L136.17,202.99 L136.67,203.16 L137.17,203.33 L137.67,203.50 L138.17,203.68 L138.68,203.86 L139.18,204.04 L139.68,204.22 L140.18,204.41 L140.68,204.60 L141.18,204.79 L141.68,204.98 L142.18,205.17 L142.68,205.37 L143.18,205.57 L143.68,205.77 L144.18,205.97 L144.68,206.17 L145.18,206.38 L145.68,206.59 L146.19,206.80 L146.69,207.01 L147.19,207.23 L147.69,207.44 L148.19,207.66 L148.69,207.88 L149.19,208.10 L149.69,208.32 L150.19,208.55 L150.69,208.78 L151.19,209.00 L151.69,209.23 L152.19,209.47 L152.69,209.70 L153.19,209.93 L153.69,210.17 L154.20,210.41 L154.70,210.65 L155.20,210.89 L155.70,211.13 L156.20,211.37 L156.70,211.62 L157.20,211.86 L157.70,212.11 L158.20,212.36 L158.70,212.61 L159.20,212.86 L159.70,213.11 L160.20,213.36 L160.70,213.62 L161.20,213.87 L161.70,214.13 L162.21,214.39 L162.71,214.65 L163.21,214.91 L163.71,215.17 L164.21,215.43 L164.71,215.69 L165.21,215.96 L165.71,216.22 L166.21,216.49 L166.71,216.75 L167.21,217.02 L167.71,217.29 L168.21,217.56 L168.71,217.82 L169.21,218.09 L169.71,218.36 L170.22,218.64 L170.72,218.91 L171.22,219.18 L171.72,219.45 L172.22,219.73 L172.72,220.00 L173.22,220.27 L173.72,220.55 L174.22,220.82 L174.72,221.10 L175.22,221.37 L175.72,221.65 L176.22,221.93 L176.72,222.20 L177.22,222.48 L177.72,222.76 L178.23,223.03 L178.73,223.31 L179.23,223.59 L179.73,223.87 L180.23,224.14 L180.73,224.42 L181.23,224.70 L181.73,224.98 L182.23,225.25 L182.73,225.53 L183.23,225.81 L183.73,226.09 L184.23,226.36 L184.73,226.64 L185.23,226.92 L185.74,227.19 L186.24,227.47 L186.74,227.75 L187.24,228.02 L187.74,228.30 L188.24,228.57 L188.74,228.85 L189.24,229.12 L189.74,229.40 L190.24,229.67 L190.74,229.94 L191.24,230.21 L191.74,230.49 L192.24,230.76 L192.74,231.03 L193.24,231.30 L193.75,231.57 L194.25,231.84 L194.75,232.10 L195.25,232.37 L195.75,232.64 L196.25,232.90 L196.75,233.17 L197.25,233.43 L197.75,233.69 L198.25,233.96 L198.75,234.22 L199.25,234.48 L199.75,234.74 L200.25,235.00 L200.75,235.25 L201.25,235.51 L201.76,235.76 L202.26,236.02 L202.76,236.27 L203.26,236.52 L203.76,236.77 L204.26,237.02 L204.76,237.27 L205.26,237.52 L205.76,237.76 L206.26,238.00 L206.76,238.25 L207.26,238.49 L207.76,238.73 L208.26,238.97 L208.76,239.20 L209.26,239.44 L209.77,239.67 L210.27,239.90 L210.77,240.13 L211.27,240.36 L211.77,240.59 L212.27,240.82 L212.77,241.04 L213.27,241.26 L213.77,241.48 L214.27,241.70 L214.77,241.92 L215.27,242.13 L215.77,242.34 L216.27,242.56 L216.77,242.76 L217.28,242.97 L217.78,243.18 L218.28,243.38 L218.78,243.58 L219.28,243.78 L219.78,243.98 L220.28,244.17 L220.78,244.37 L221.28,244.56 L221.78,244.75 L222.28,244.93 L222.78,245.12 L223.28,245.30 L223.78,245.48 L224.28,245.65 L224.78,245.83 L225.29,246.00 L225.79,246.17 L226.29,246.34 L226.79,246.50 L227.29,246.67 L227.79,246.83 L228.29,246.98 L228.79,247.14 L229.29,247.29 L229.79,247.44 L230.29,247.59 L230.79,247.73 L231.29,247.87 L231.79,248.01 L232.29,248.15 L232.79,248.28 L233.30,248.41 L233.80,248.54 L234.30,248.67 L234.80,248.79 L235.30,248.91 L235.80,249.02 L236.30,249.13 L236.80,249.24 L237.30,249.35 L237.80,249.46 L238.30,249.56 L238.80,249.65 L239.30,249.75 L239.80,249.84 L240.30,249.93 L240.80,250.01 L241.31,250.09 L241.81,250.17 L242.31,250.25 L242.81,250.32 L243.31,250.39 L243.81,250.45 L244.31,250.51 L244.81,250.57 L245.31,250.63 L245.81,250.68 L246.31,250.73 L246.81,250.77 L247.31,250.81 L247.81,250.85 L248.31,250.88 L248.81,250.91 L249.32,250.94 L249.82,250.96 L250.32,250.98 L250.82,250.99 L251.32,251.00 L251.82,251.01 L252.32,251.01 L252.82,251.01 L253.32,251.00 L253.82,251.00 L254.32,250.98 L254.82,250.97 L255.32,250.95 L255.82,250.92 L256.32,250.89 L256.83,250.86 L257.33,250.82 L257.83,250.78 L258.33,250.74 L258.83,250.69 L259.33,250.63 L259.83,250.57 L260.33,250.51 L260.83,250.44 L261.33,250.37 L261.83,250.30 L262.33,250.22 L262.83,250.13 L263.33,250.04 L263.83,249.95 L264.33,249.85 L264.84,249.75 L265.34,249.64 L265.84,249.53 L266.34,249.42 L266.84,249.30 L267.34,249.17 L267.84,249.04 L268.34,248.91 L268.84,248.77 L269.34,248.62 L269.84,248.47 L270.34,248.32 L270.84,248.16 L271.34,247.99 L271.84,247.83 L272.34,247.65 L272.85,247.47 L273.35,247.29 L273.85,247.10 L274.35,246.91 L274.85,246.71 L275.35,246.50 L275.85,246.29 L276.35,246.08 L276.85,245.86 L277.35,245.64 L277.85,245.41 L278.35,245.17 L278.85,244.93 L279.35,244.68 L279.85,244.43 L280.35,244.18 L280.86,243.91 L281.36,243.65 L281.86,243.37 L282.36,243.09 L282.86,242.81 L283.36,242.52 L283.86,242.23 L284.36,241.92 L284.86,241.62 L285.36,241.31 L285.86,240.99 L286.36,240.66 L286.86,240.33 L287.36,240.00 L287.86,239.66 L288.37,239.31 L288.87,238.96 L289.37,238.60 L289.87,238.24 L290.37,237.87 L290.87,237.49 L291.37,237.11 L291.87,236.72 L292.37,236.33 L292.87,235.93 L293.37,235.52 L293.87,235.11 L294.37,234.69 L294.87,234.26 L295.37,233.83 L295.87,233.39 L296.38,232.95 L296.88,232.50 L297.38,232.04 L297.88,231.58 L298.38,231.11 L298.88,230.64 L299.38,230.15 L299.88,229.67 L300.38,229.17 L300.88,228.67 L301.38,228.16 L301.88,227.65 L302.38,227.13 L302.88,226.60 L303.38,226.07 L303.88,225.52 L304.39,224.98 L304.89,224.42 L305.39,223.86 L305.89,223.29 L306.39,222.72 L306.89,222.14 L307.39,221.55 L307.89,220.95 L308.39,220.35 L308.89,219.74 L309.39,219.13 L309.89,218.50 L310.39,217.87 L310.89,217.24 L311.39,216.59 L311.89,215.94 L312.40,215.28 L312.90,214.62 L313.40,213.94 L313.90,213.26 L314.40,212.58 L314.90,211.88 L315.40,211.18 L315.90,210.47 L316.40,209.75 L316.90,209.03 L317.40,208.30 L317.90,207.56 L318.40,206.81 L318.90,206.06 L319.40,205.30 L319.90,204.53 L320.41,203.75 L320.91,202.97 L321.41,202.18 L321.91,201.38 L322.41,200.57 L322.91,199.76 L323.41,198.93 L323.91,198.10 L324.41,197.26 L324.91,196.42 L325.41,195.57 L325.91,194.70 L326.41,193.83 L326.91,192.96 L327.41,192.07 L327.92,191.18 L328.42,190.28 L328.92,189.37 L329.42,188.45 L329.92,187.52 L330.42,186.59 L330.92,185.65 L331.42,184.70 L331.92,183.74 L332.42,182.77 L332.92,181.80 L333.42,180.82 L333.92,179.83 L334.42,178.83 L334.92,177.82 L335.42,176.80 L335.93,175.78 L336.43,174.74 L336.93,173.70 L337.43,172.65 L337.93,171.59 L338.43,170.52 L338.93,169.45 L339.43,168.36 L339.93,167.27 L340.43,166.17 L340.93,165.06 L341.43,163.94 L341.93,162.81 L342.43,161.67 L342.93,160.53 L343.43,159.37 L343.94,158.21 L344.44,157.04 L344.94,155.86 L345.44,154.67 L345.94,153.47 L346.44,152.26 L346.94,151.04 L347.44,149.82 L347.94,148.58 L348.44,147.34 L348.94,146.08 L349.44,144.82 L349.94,143.55 L350.44,142.27 L350.94,140.98 L351.44,139.68 L351.95,138.37 L352.45,137.05 L352.95,135.73 L353.45,134.39 L353.95,133.04 L354.45,131.69 L354.95,130.32 L355.45,128.95 L355.95,127.56 L356.45,126.17 L356.95,124.77 L357.45,123.35 L357.95,121.93 L358.45,120.50 L358.95,119.06 L359.46,117.61 L359.96,116.14 L360.46,114.67 L360.96,113.19 L361.46,111.70 L361.96,110.20 L362.46,108.69 L362.96,107.17 L363.46,105.64 L363.96,104.10 L364.46,102.55 L364.96,100.99 L365.46,99.42 L365.96,97.84 L366.46,96.25 L366.96,94.65 L367.47,93.04 L367.97,91.42 L368.47,89.79 L368.97,88.15 L369.47,86.50 L369.97,84.83 L370.47,83.16 L370.97,81.48 L371.47,79.79 L371.97,78.08 L372.47,76.37 L372.97,74.65 L373.47,72.91 L373.97,71.17 L374.47,69.41 L374.97,67.65 L375.48,65.87 L375.98,64.08 L376.48,62.29 L376.98,60.48 L377.48,58.66 L377.98,56.83 L378.48,54.99 L378.98,53.14 L379.48,51.27 L379.98,49.40 L380.48,47.52 L380.98,45.62 L381.48,43.72 L381.98,41.80 L382.48,39.87 L382.98,37.93 L383.49,35.98 L383.99,34.02 L384.49,32.05 L384.99,30.07 L385.49,28.08 L385.99,26.07 L386.49,24.05 L386.99,22.03 L387.49,19.99 L387.99,17.94 L388.49,15.88 L388.99,13.81 L389.49,11.72 L389.99,9.63 L390.49,7.52 L390.99,5.40 L391.50,3.27 L392.00,1.13 L392.50,-1.02 L393.00,-3.19 L393.50,-5.36 L394.00,-7.55 L394.50,-9.75 L395.00,-11.96" style="stroke-width: 2; stroke: rgb(74, 144, 226); stroke-opacity: 0.8;"/></g></g><g class="test-xtl" style="font-family: &quot;Open Sans&quot;, verdana, arial, sans-serif;"><text text-anchor="middle" font-size="11" dominant-baseline="hanging" stroke="none" fill="rgb(50,50,50)" fill-opacity="1" x="35.16025476737459" y="218.410624041061">-1</text><text text-anchor="middle" font-size="11" dominant-baseline="hanging" stroke="none" fill="rgb(50,50,50)" fill-opacity="1" x="181.07031668511078" y="218.410624041061">1</text><text text-anchor="middle" font-size="11" dominant-baseline="hanging" stroke="none" fill="rgb(50,50,50)" fill-opacity="1" x="252.45784764397885" y="218.410624041061">2</text><text text-anchor="middle" font-size="11" dominant-baseline="hanging" stroke="none" fill="rgb(50,50,50)" fill-opacity="1" x="323.845378602847" y="218.410624041061">3</text><text text-anchor="middle" font-size="11" dominant-baseline="hanging" stroke="none" fill="rgb(50,50,50)" fill-opacity="1" x="101.68278572624268" y="216.410624041061">0</text></g><g class="test-ytl" style="font-family: &quot;Open Sans&quot;, verdana, arial, sans-serif;"/><rect class="real" x="1" y="1" width="393" height="302" style="fill: transparent; stroke: none;"/></g></g></g><g/></g><g/><g/><g/></svg>
        <svg xmlns="http://www.w3.org/2000/svg" xmlns:xlink="http://www.w3.org/1999/xlink" width="700" height="300" style="width:700px;height:300px;font-family:Asana-Math, Asana;background:transparent;"></svg>
</svg>
