<?xml version="1.0" encoding="UTF-8" standalone="no"?>
<!-- Created with Inkscape (http://www.inkscape.org/) -->

<svg
   width="300"
   height="300"
   viewBox="0 0 79.374999 79.375001"
   version="1.1"
   id="svg256"
   xml:space="preserve"
   xmlns="http://www.w3.org/2000/svg"
   xmlns:svg="http://www.w3.org/2000/svg"><defs
     id="defs253" /><g
     id="layer1"><g
       style="fill:none"
       id="g488"
       transform="matrix(0.49415435,0,0,0.49415435,-125.12351,-39.240861)"><svg
         class="role-diagram-draw-area"
         version="1.1"
         id="svg316"
         width="100%"
         height="100%"><g
           class="shapes-region"
           style="fill:none;stroke:#000000"
           id="g308"><g
             class="composite-shape"
             id="g262"><path
               class="real"
               d="m 277.74,124.25 c 0.05,-4.84 4.02,-8.72 8.86,-8.67 4.83,0.06 8.71,4.03 8.66,8.86 -0.06,4.84 -4.03,8.72 -8.86,8.67 -4.84,-0.06 -8.72,-4.03 -8.66,-8.86 z"
               style="fill:none;fill-opacity:1;stroke:#000000;stroke-width:1px"
               id="path260" /></g><g
             class="arrow-line"
             id="g266"><path
               class="connection real"
               stroke-dasharray="none"
               d="M 304.25,124.75 368.5,125"
               style="fill:none;fill-opacity:1;stroke:#000000;stroke-width:1px"
               id="path264" /></g><g
             class="composite-shape"
             id="g270"><path
               class="real"
               d="m 277.74,224.75 c 0.05,-4.84 4.02,-8.72 8.86,-8.67 4.83,0.06 8.71,4.03 8.66,8.86 -0.06,4.84 -4.03,8.72 -8.86,8.67 -4.84,-0.06 -8.72,-4.03 -8.66,-8.86 z"
               style="fill:none;fill-opacity:1;stroke:#000000;stroke-width:1px"
               id="path268" /></g><g
             class="composite-shape"
             id="g274"><path
               class="real"
               d="m 377.24,224.25 c 0.05,-4.84 4.02,-8.72 8.86,-8.67 4.83,0.06 8.71,4.03 8.66,8.86 -0.06,4.84 -4.03,8.72 -8.86,8.67 -4.84,-0.06 -8.72,-4.03 -8.66,-8.86 z"
               style="fill:none;fill-opacity:1;stroke:#000000;stroke-width:1px"
               id="path272" /></g><g
             class="composite-shape"
             id="g278"><path
               class="real"
               d="m 377.24,125.25 c 0.05,-4.84 4.02,-8.72 8.86,-8.67 4.83,0.06 8.71,4.03 8.66,8.86 -0.06,4.84 -4.03,8.72 -8.86,8.67 -4.84,-0.06 -8.72,-4.03 -8.66,-8.86 z"
               style="fill:none;fill-opacity:1;stroke:#000000;stroke-width:1px"
               id="path276" /></g><g
             class="arrow-line"
             id="g282"><path
               class="connection real"
               stroke-dasharray="none"
               d="m 385.5,139.5 v 66.75"
               style="fill:none;fill-opacity:1;stroke:#000000;stroke-width:1px"
               id="path280" /></g><g
             class="arrow-line"
             id="g286"><path
               class="connection real"
               stroke-dasharray="none"
               d="m 304,225.5 68.25,-0.25"
               style="fill:none;fill-opacity:1;stroke:#000000;stroke-width:1px"
               id="path284" /></g><g
             class="arrow-line"
             id="g290"><path
               class="connection real"
               stroke-dasharray="none"
               d="m 298.25,213.25 71,-71"
               style="fill:none;fill-opacity:1;stroke:#000000;stroke-width:1px"
               id="path288" /></g><g
             class="arrow-line"
             id="g294"><path
               class="connection real"
               stroke-dasharray="none"
               d="M 300.63,141.13 322,162.5 370.75,211.25"
               style="fill:none;fill-opacity:1;stroke:#000000;stroke-width:1px"
               id="path292" /></g><g
             class="arrow-line"
             id="g298"><path
               class="connection real"
               stroke-dasharray="none"
               d="m 300.75,114.25 c 25,-12 48.5,-11 72,-1.5"
               style="fill:none;fill-opacity:1;stroke:#000000;stroke-width:1px"
               id="path296" /></g><g
             class="composite-shape"
             id="g304"><path
               class="real"
               d="m 272.48,122.84 c -1.27,0.22 -2.61,0.23 -3.96,0.01 -6.33,-1.05 -10.64,-6.92 -9.61,-13.12 1.02,-6.2 6.98,-10.37 13.32,-9.33 4.4,0.73 7.82,3.78 9.15,7.66 l -11,3.57 z"
               style="fill:none;fill-opacity:1;stroke:none;stroke-width:1px"
               id="path300" /><path
               class="real"
               d="m 272.48,122.84 c -1.27,0.22 -2.61,0.23 -3.96,0.01 -6.33,-1.05 -10.64,-6.92 -9.61,-13.12 1.02,-6.2 6.98,-10.37 13.32,-9.33 4.4,0.73 7.82,3.78 9.15,7.66"
               style="fill:none;fill-opacity:1;stroke:#000000;stroke-width:1px"
               id="path302" /></g><g
             id="g306" /></g><g
           id="g310" /><g
           id="g312" /><g
           id="g314" /></svg><svg
         width="660"
         height="436"
         style="font-family:Asana-Math, Asana"
         version="1.1"
         id="svg406"><g
           id="g324"><g
             id="g322"><g
               id="g320"><g
                 aria-label="x"
                 id="text318"
                 style="font-size:15px;font-family:Arial, Helvetica, sans-serif;dominant-baseline:text-before-edge;white-space:pre;fill:#000000"><path
                   d="m 405.8667,230.63632 -2.13135,-3.25196 -2.14599,3.25196 h -1.4209 l 2.81982,-4.07227 -2.68799,-3.85254 h 1.45752 l 1.97754,3.0835 1.96289,-3.0835 h 1.47217 l -2.68799,3.83789 2.85645,4.08692 z"
                   id="path664" /></g></g></g></g><g
           id="g332"><g
             id="g330"><g
               id="g328"><g
                 aria-label="w"
                 id="text326"
                 style="font-size:15px;font-family:Arial, Helvetica, sans-serif;dominant-baseline:text-before-edge;white-space:pre;fill:#000000"><path
                   d="m 268.59863,226.63632 h -1.53076 l -1.38428,-5.60303 -0.26367,-1.23779 q -0.0659,0.32959 -0.20508,0.95214 -0.13916,0.61524 -1.49414,5.88868 h -1.52343 l -2.21924,-7.92481 h 1.30371 l 1.34033,5.3833 q 0.0513,0.17578 0.31494,1.4502 l 0.12451,-0.54199 1.65528,-6.29151 h 1.41357 l 1.38428,5.4419 0.33691,1.3916 0.22705,-1.01807 1.50147,-5.81543 h 1.28906 z"
                   id="path667" /></g></g></g></g><g
           id="g340"><g
             id="g338"><g
               id="g336"><g
                 aria-label="v"
                 id="text334"
                 style="font-size:15px;font-family:Arial, Helvetica, sans-serif;dominant-baseline:text-before-edge;white-space:pre;fill:#000000"><path
                   d="m 406.98975,133.13632 h -1.56006 l -2.87842,-7.92481 h 1.40625 l 1.74316,5.15625 q 0.0952,0.29297 0.50537,1.73584 l 0.25635,-0.85693 0.28565,-0.86426 1.80175,-5.1709 h 1.39893 z"
                   id="path670" /></g></g></g></g><g
           id="g348"><g
             id="g346"><g
               id="g344"><g
                 aria-label="u"
                 id="text342"
                 style="font-size:15px;font-family:Arial, Helvetica, sans-serif;dominant-baseline:text-before-edge;white-space:pre;fill:#000000"><path
                   d="m 264.7998,126.21151 v 5.02442 q 0,0.78369 0.15381,1.21582 0.15381,0.43212 0.49073,0.62255 0.33691,0.19043 0.98877,0.19043 0.95214,0 1.50146,-0.65185 0.54932,-0.65186 0.54932,-1.80908 v -4.59229 h 1.31836 v 6.23291 q 0,1.38428 0.0439,1.6919 h -1.24512 q -0.007,-0.0366 -0.0146,-0.19776 -0.007,-0.16113 -0.022,-0.36621 -0.007,-0.2124 -0.022,-0.79101 h -0.022 q -0.4541,0.82031 -1.05469,1.16455 -0.59326,0.33691 -1.47949,0.33691 -1.30371,0 -1.91162,-0.64453 -0.60059,-0.65186 -0.60059,-2.146 v -5.28076 z"
                   id="path673" /></g></g></g></g><g
           id="g356"><g
             id="g354"><g
               id="g352"><g
                 aria-label="b"
                 id="text350"
                 style="font-size:15px;font-family:Arial, Helvetica, sans-serif;dominant-baseline:text-before-edge;white-space:pre;fill:#000000"><path
                   d="m 270.7124,88.637293 q 0,4.145508 -2.91504,4.145508 -0.90088,0 -1.50146,-0.322266 -0.59326,-0.32959 -0.9668,-1.054687 h -0.0146 q 0,0.22705 -0.0293,0.6958 -0.0293,0.461426 -0.0439,0.534668 h -1.27441 q 0.0439,-0.395508 0.0439,-1.6333 v -9.23584 h 1.31836 v 3.098144 q 0,0.476074 -0.0293,1.120606 h 0.0293 q 0.36621,-0.761719 0.9668,-1.091309 0.60791,-0.32959 1.50146,-0.32959 1.50147,0 2.20459,1.010742 0.71045,1.010743 0.71045,3.061524 z m -1.38428,0.04394 q 0,-1.662597 -0.43945,-2.380371 -0.43945,-0.717773 -1.42822,-0.717773 -1.11328,0 -1.62598,0.761718 -0.50537,0.761719 -0.50537,2.416993 0,1.560058 0.49805,2.307128 0.49805,0.739747 1.61865,0.739747 0.99609,0 1.43555,-0.732422 0.44677,-0.739746 0.44677,-2.39502 z"
                   id="path676" /></g></g></g></g><g
           id="g364"><g
             id="g362"><g
               id="g360"><g
                 aria-label="a"
                 id="text358"
                 style="font-size:15px;font-family:Arial, Helvetica, sans-serif;dominant-baseline:text-before-edge;white-space:pre;fill:#000000"><path
                   d="m 335.03223,98.282801 q -1.19385,0 -1.79444,-0.629883 -0.60058,-0.629883 -0.60058,-1.728516 0,-1.230469 0.80566,-1.889648 0.81299,-0.65918 2.61475,-0.703125 l 1.77978,-0.0293 v -0.432129 q 0,-0.966797 -0.41015,-1.384277 -0.41016,-0.417481 -1.28907,-0.417481 -0.88623,0 -1.28906,0.300293 -0.40283,0.300293 -0.4834,0.959473 l -1.37695,-0.124512 q 0.33691,-2.138672 3.17871,-2.138672 1.49414,0 2.24854,0.688477 0.75439,0.681152 0.75439,1.977539 v 3.413086 q 0,0.585937 0.15381,0.88623 0.15381,0.292969 0.58594,0.292969 0.19043,0 0.43213,-0.05127 v 0.820313 q -0.49805,0.117187 -1.01807,0.117187 -0.73242,0 -1.06934,-0.380859 -0.32959,-0.388183 -0.37353,-1.208496 h -0.0439 q -0.50537,0.908203 -1.1792,1.289063 -0.6665,0.373535 -1.62597,0.373535 z m 0.30029,-0.98877 q 0.7251,0 1.28906,-0.32959 0.56397,-0.32959 0.88623,-0.900879 0.32959,-0.578613 0.32959,-1.186523 v -0.651856 l -1.44287,0.0293 q -0.93017,0.01465 -1.41357,0.19043 -0.47608,0.175781 -0.73242,0.541992 -0.25635,0.366211 -0.25635,0.959473 0,0.644531 0.34424,0.996094 0.35156,0.351562 0.99609,0.351562 z"
                   id="path679" /></g></g></g></g><g
           id="g372"><g
             id="g370"><g
               id="g368"><g
                 aria-label="c"
                 id="text366"
                 style="font-size:15px;font-family:Arial, Helvetica, sans-serif;dominant-baseline:text-before-edge;white-space:pre;fill:#000000"><path
                   d="m 316.51416,180.63729 q 0,1.58203 0.49805,2.34375 0.49804,0.76172 1.50146,0.76172 0.70313,0 1.17188,-0.38086 0.47607,-0.38086 0.58593,-1.17187 l 1.33301,0.0879 q -0.15381,1.14258 -0.97412,1.82373 -0.82031,0.68115 -2.08008,0.68115 -1.66259,0 -2.5415,-1.04736 -0.87158,-1.05469 -0.87158,-3.06885 0,-1.99951 0.8789,-3.04688 0.87891,-1.05468 2.51953,-1.05468 1.21582,0 2.01416,0.62988 0.80567,0.62988 1.01075,1.73584 l -1.35498,0.10254 q -0.10254,-0.65918 -0.52002,-1.04736 -0.41748,-0.38819 -1.18653,-0.38819 -1.04736,0 -1.51611,0.6958 -0.46875,0.6958 -0.46875,2.34375 z"
                   id="path682" /></g></g></g></g><g
           id="g380"><g
             id="g378"><g
               id="g376"><g
                 aria-label="d"
                 id="text374"
                 style="font-size:15px;font-family:Arial, Helvetica, sans-serif;dominant-baseline:text-before-edge;white-space:pre;fill:#000000"><path
                   d="m 397.01318,174.8619 q -0.36621,0.76172 -0.97412,1.09131 -0.60058,0.32959 -1.49414,0.32959 -1.50146,0 -2.21191,-1.01074 -0.70313,-1.01074 -0.70313,-3.06152 0,-4.14551 2.91504,-4.14551 0.90088,0 1.50147,0.32959 0.60058,0.32959 0.96679,1.04736 h 0.0147 l -0.0147,-0.88623 v -3.28857 h 1.31836 v 9.23584 q 0,1.23779 0.0439,1.6333 h -1.25977 q -0.022,-0.11719 -0.0513,-0.542 -0.022,-0.4248 -0.022,-0.73242 z m -3.99902,-2.69531 q 0,1.6626 0.43945,2.38037 0.43946,0.71777 1.42823,0.71777 1.1206,0 1.62597,-0.77636 0.50537,-0.77637 0.50537,-2.40967 0,-1.57471 -0.50537,-2.30713 -0.50537,-0.73242 -1.61133,-0.73242 -0.99609,0 -1.44287,0.73974 -0.43945,0.73243 -0.43945,2.3877 z"
                   id="path685" /></g></g></g></g><g
           id="g388"><g
             id="g386"><g
               id="g384"><g
                 aria-label="e"
                 id="text382"
                 style="font-size:15px;font-family:Arial, Helvetica, sans-serif;dominant-baseline:text-before-edge;white-space:pre;fill:#000000"><path
                   d="m 333.52148,131.95223 q 0,1.36231 0.56397,2.10206 0.56396,0.73974 1.64795,0.73974 0.85693,0 1.36963,-0.34424 0.52002,-0.34424 0.70312,-0.87158 l 1.15723,0.32959 q -0.71045,1.875 -3.22998,1.875 -1.75781,0 -2.68067,-1.04736 -0.91552,-1.04737 -0.91552,-3.1128 0,-1.96289 0.91552,-3.01025 0.92286,-1.04736 2.6294,-1.04736 3.49365,0 3.49365,4.21142 v 0.17578 z m 4.292,-1.01074 q -0.10987,-1.25244 -0.63721,-1.82373 -0.52734,-0.57861 -1.51611,-0.57861 -0.95948,0 -1.52344,0.64453 -0.55664,0.63721 -0.60059,1.75781 z"
                   id="path688" /></g></g></g></g><g
           id="g396"><g
             id="g394"><g
               id="g392"><g
                 aria-label="f"
                 id="text390"
                 style="font-size:15px;font-family:Arial, Helvetica, sans-serif;dominant-baseline:text-before-edge;white-space:pre;fill:#000000"><path
                   d="m 336.14404,230.17098 v 6.96534 h -1.31836 v -6.96534 h -1.11328 v -0.95947 h 1.11328 v -0.89355 q 0,-1.08399 0.47608,-1.56006 0.47607,-0.47608 1.45752,-0.47608 0.54931,0 0.93017,0.0879 v 1.00342 q -0.32959,-0.0586 -0.58593,-0.0586 -0.50538,0 -0.73243,0.25635 -0.22705,0.25634 -0.22705,0.93017 v 0.71045 h 1.54541 v 0.95947 z"
                   id="path691" /></g></g></g></g><g
           id="g404"><g
             id="g402"><g
               id="g400"><g
                 aria-label="g"
                 id="text398"
                 style="font-size:15px;font-family:Arial, Helvetica, sans-serif;dominant-baseline:text-before-edge;white-space:pre;fill:#000000"><path
                   d="m 302.51367,160.24911 q -1.29638,0 -2.06543,-0.5127 -0.76904,-0.50537 -0.98877,-1.44287 l 1.32569,-0.19043 q 0.13183,0.54932 0.57861,0.84229 0.4541,0.30029 1.18652,0.30029 1.97022,0 1.97022,-2.30713 v -1.27441 h -0.0147 q -0.37354,0.76172 -1.02539,1.1499 -0.65186,0.38086 -1.52344,0.38086 -1.45752,0 -2.14599,-0.9668 -0.68116,-0.96679 -0.68116,-3.03955 0,-2.10205 0.73242,-3.09814 0.73975,-1.00342 2.24122,-1.00342 0.84228,0 1.45752,0.38818 0.62255,0.38086 0.95947,1.09131 h 0.0147 q 0,-0.21972 0.0293,-0.76172 0.0293,-0.54199 0.0586,-0.59326 h 1.25244 q -0.0439,0.39551 -0.0439,1.64063 v 6.05713 q 0,3.33984 -3.31787,3.33984 z m 2.00684,-7.0752 q 0,-0.96679 -0.26367,-1.66259 -0.26368,-0.70313 -0.74707,-1.06934 -0.47608,-0.37353 -1.08399,-0.37353 -1.01074,0 -1.47217,0.73242 -0.46142,0.73242 -0.46142,2.37304 0,1.62598 0.43213,2.33643 0.43213,0.71045 1.47949,0.71045 0.62256,0 1.10596,-0.36621 0.48339,-0.36621 0.74707,-1.04737 0.26367,-0.68847 0.26367,-1.6333 z"
                   id="path694" /></g></g></g></g></svg></g></g></svg>
