<svg xmlns="http://www.w3.org/2000/svg" xmlns:xlink="http://www.w3.org/1999/xlink" x="0" y="0" width="410" height="410" style="
        width:410px;
        height:410px;
        background: transparent;
        fill: none;
">
        
        
        <svg xmlns="http://www.w3.org/2000/svg" class="role-diagram-draw-area"><g class="shapes-region" style="stroke: black; fill: none;"><g class="composite-shape"><path class="real" d=" M291.74,149.25 C291.79,144.41 295.76,140.53 300.6,140.58 C305.43,140.64 309.31,144.61 309.26,149.44 C309.2,154.28 305.23,158.16 300.4,158.11 C295.56,158.05 291.68,154.08 291.74,149.25 Z" style="stroke-width: 1px; stroke: rgb(0, 0, 0); fill: none; fill-opacity: 1;"/></g><g class="arrow-line"><path class="connection real" stroke-dasharray="" d="  M318.25,149.75 L382.5,150" style="stroke: rgb(0, 0, 0); stroke-width: 1px; fill: none; fill-opacity: 1;"/></g><g class="composite-shape"><path class="real" d=" M291.74,249.75 C291.79,244.91 295.76,241.03 300.6,241.08 C305.43,241.14 309.31,245.11 309.26,249.94 C309.2,254.78 305.23,258.66 300.4,258.61 C295.56,258.55 291.68,254.58 291.74,249.75 Z" style="stroke-width: 1px; stroke: rgb(0, 0, 0); fill: none; fill-opacity: 1;"/></g><g class="composite-shape"><path class="real" d=" M391.24,249.25 C391.29,244.41 395.26,240.53 400.1,240.58 C404.93,240.64 408.81,244.61 408.76,249.44 C408.7,254.28 404.73,258.16 399.9,258.11 C395.06,258.05 391.18,254.08 391.24,249.25 Z" style="stroke-width: 1px; stroke: rgb(0, 0, 0); fill: none; fill-opacity: 1;"/></g><g class="composite-shape"><path class="real" d=" M391.24,150.25 C391.29,145.41 395.26,141.53 400.1,141.58 C404.93,141.64 408.81,145.61 408.76,150.44 C408.7,155.28 404.73,159.16 399.9,159.11 C395.06,159.05 391.18,155.08 391.24,150.25 Z" style="stroke-width: 1px; stroke: rgb(0, 0, 0); fill: none; fill-opacity: 1;"/></g><g class="arrow-line"><path class="connection real" stroke-dasharray="" d="  M399.5,164.5 L399.5,231.25" style="stroke: rgb(0, 0, 0); stroke-width: 1px; fill: none; fill-opacity: 1;"/></g><g class="arrow-line"><path class="connection real" stroke-dasharray="" d="  M318,250.5 L386.25,250.25" style="stroke: rgb(0, 0, 0); stroke-width: 1px; fill: none; fill-opacity: 1;"/></g><g class="arrow-line"><path class="connection real" stroke-dasharray="" d="  M312.25,238.25 L383.25,167.25" style="stroke: rgb(0, 0, 0); stroke-width: 1px; fill: none; fill-opacity: 1;"/></g><g class="arrow-line"><path class="connection real" stroke-dasharray="" d="  M314.63,166.13 L384.75,236.25" style="stroke: rgb(0, 0, 0); stroke-width: 1px; fill: none; fill-opacity: 1;"/></g><g class="arrow-line"><path class="connection real" stroke-dasharray="" d="  M314.75,139.25 C339.75,127.25 363.25,128.25 386.75,137.75" style="stroke: rgb(0, 0, 0); stroke-width: 1px; fill: none; fill-opacity: 1;"/></g><g class="composite-shape"><path class="real" d=" M286.48,147.84 C285.21,148.06 283.87,148.07 282.52,147.85 C276.19,146.8 271.88,140.93 272.91,134.73 C273.93,128.53 279.89,124.36 286.23,125.4 C290.63,126.13 294.05,129.18 295.38,133.06 L284.38,136.63 Z" style="stroke-width: 1px; stroke: none; fill: none; fill-opacity: 1;"/><path class="real" d=" M286.48,147.84 C285.21,148.06 283.87,148.07 282.52,147.85 C276.19,146.8 271.88,140.93 272.91,134.73 C273.93,128.53 279.89,124.36 286.23,125.4 C290.63,126.13 294.05,129.18 295.38,133.06" style="stroke-width: 1px; stroke: rgb(0, 0, 0); fill: none; fill-opacity: 1;"/></g><g/></g><g/><g/><g/></svg>
        <svg xmlns="http://www.w3.org/2000/svg" xmlns:xlink="http://www.w3.org/1999/xlink" width="660" height="413" style="width:660px;height:413px;font-family:Asana-Math, Asana;background:transparent;"><g><g><g><text x="414" y="244" style="white-space:pre;stroke:none;fill:rgb(0,0,0);fill-opacity:1;font-size:15px;font-family:Arial, Helvetica, sans-serif;font-weight:400;font-style:normal;dominant-baseline:text-before-edge;text-decoration:none;">x</text></g></g></g><g><g><g><text x="274" y="240" style="white-space:pre;stroke:none;fill:rgb(0,0,0);fill-opacity:1;font-size:15px;font-family:Arial, Helvetica, sans-serif;font-weight:400;font-style:normal;dominant-baseline:text-before-edge;text-decoration:none;">w</text></g></g></g><g><g><g><text x="416.5" y="146.5" style="white-space:pre;stroke:none;fill:rgb(0,0,0);fill-opacity:1;font-size:15px;font-family:Arial, Helvetica, sans-serif;font-weight:400;font-style:normal;dominant-baseline:text-before-edge;text-decoration:none;">v</text></g></g></g><g><g><g><text x="276.5" y="147.5" style="white-space:pre;stroke:none;fill:rgb(0,0,0);fill-opacity:1;font-size:15px;font-family:Arial, Helvetica, sans-serif;font-weight:400;font-style:normal;dominant-baseline:text-before-edge;text-decoration:none;">u</text></g></g></g><g><g><g><text x="277" y="106" style="white-space:pre;stroke:none;fill:rgb(0,0,0);fill-opacity:1;font-size:15px;font-family:Arial, Helvetica, sans-serif;font-weight:400;font-style:normal;dominant-baseline:text-before-edge;text-decoration:none;">b</text></g></g></g><g><g><g><text x="346" y="111.5" style="white-space:pre;stroke:none;fill:rgb(0,0,0);fill-opacity:1;font-size:15px;font-family:Arial, Helvetica, sans-serif;font-weight:400;font-style:normal;dominant-baseline:text-before-edge;text-decoration:none;">a</text></g></g></g><g><g><g><text x="328.5" y="198" style="white-space:pre;stroke:none;fill:rgb(0,0,0);fill-opacity:1;font-size:15px;font-family:Arial, Helvetica, sans-serif;font-weight:400;font-style:normal;dominant-baseline:text-before-edge;text-decoration:none;">c</text></g></g></g><g><g><g><text x="405" y="189.5" style="white-space:pre;stroke:none;fill:rgb(0,0,0);fill-opacity:1;font-size:15px;font-family:Arial, Helvetica, sans-serif;font-weight:400;font-style:normal;dominant-baseline:text-before-edge;text-decoration:none;">d</text></g></g></g><g><g><g><text x="345.5" y="149" style="white-space:pre;stroke:none;fill:rgb(0,0,0);fill-opacity:1;font-size:15px;font-family:Arial, Helvetica, sans-serif;font-weight:400;font-style:normal;dominant-baseline:text-before-edge;text-decoration:none;">e</text></g></g></g><g><g><g><text x="347.5" y="250.5" style="white-space:pre;stroke:none;fill:rgb(0,0,0);fill-opacity:1;font-size:15px;font-family:Arial, Helvetica, sans-serif;font-weight:400;font-style:normal;dominant-baseline:text-before-edge;text-decoration:none;">f</text></g></g></g><g><g><g><text x="312.5" y="170.5" style="white-space:pre;stroke:none;fill:rgb(0,0,0);fill-opacity:1;font-size:15px;font-family:Arial, Helvetica, sans-serif;font-weight:400;font-style:normal;dominant-baseline:text-before-edge;text-decoration:none;">g</text></g></g></g></svg>
</svg>
