<svg xmlns="http://www.w3.org/2000/svg" xmlns:xlink="http://www.w3.org/1999/xlink" x="0" y="0" width="661.2036743164062" height="277.7532958984375" style="
        width:661.2036743164062px;
        height:277.7532958984375px;
        background: transparent;
        fill: none;
">
        
        
        <svg xmlns="http://www.w3.org/2000/svg" class="role-diagram-draw-area"><g class="shapes-region" style="stroke: black; fill: none;"><g class="composite-shape" data-amt="diagram/shapes/plot" transform="matrix(1,0,0,1,212,27)"><g><g/><g><g class="test-xti" style="font-family: Asana-Math, Asana;"><line x1="0" y1="216.48013079597578" x2="273.691349029541" y2="216.48013079597578" fill="none" stroke="rgb(50,50,50)" stroke-opacity="1" stroke-width="1"/><line x1="153.90180428272205" y1="212.48013079597578" x2="153.90180428272205" y2="220.48013079597578" fill="none" stroke="rgb(50,50,50)" stroke-opacity="1" stroke-width="1"/><line x1="247.7678230305372" y1="212.48013079597578" x2="247.7678230305372" y2="220.48013079597578" fill="none" stroke="rgb(50,50,50)" stroke-opacity="1" stroke-width="1"/><path d="M268.691349029541,212.8801307959758 L276.691349029541,216.48013079597578 L268.691349029541,220.08013079597578 Z" stroke="none" stroke-width="1" fill="rgb(50,50,50)" fill-opacity="1"/></g><g class="test-yti" style="font-family: Asana-Math, Asana;"><line x1="60.035785534906935" y1="4" x2="60.035785534906935" y2="242" fill="none" stroke="rgb(50,50,50)" stroke-opacity="1" stroke-width="1"/><line x1="56.035785534906935" y1="122.61411204816066" x2="64.03578553490694" y2="122.61411204816066" fill="none" stroke="rgb(50,50,50)" stroke-opacity="1" stroke-width="1"/><line x1="56.035785534906935" y1="28.748093300345573" x2="64.03578553490694" y2="28.748093300345573" fill="none" stroke="rgb(50,50,50)" stroke-opacity="1" stroke-width="1"/><path d="M56.435785534906934,9 L60.035785534906935,1 L63.63578553490694,9 Z" stroke="none" stroke-width="1" fill="rgb(50,50,50)" fill-opacity="1"/></g><g class="test-plot-expression"><defs><clipPath id="cpk0fbkr7jg"><rect x="1" y="1" width="275.691349029541" height="240"/></clipPath></defs><g clip-path="url(#cpk0fbkr7jg)"><path d=" M60.04,47.52 L60.34,47.52 L60.65,47.52 L60.95,47.52 L61.25,47.52 L61.56,47.52 L61.86,47.52 L62.17,47.52 L62.47,47.52 L62.78,47.52 L63.08,47.52 L63.39,47.52 L63.69,47.52 L64.00,47.52 L64.30,47.52 L64.61,47.52 L64.91,47.52 L65.22,47.52 L65.52,47.52 L65.83,47.52 L66.13,47.52 L66.44,47.52 L66.74,47.52 L67.05,47.52 L67.35,47.52 L67.66,47.52 L67.96,47.52 L68.26,47.52 L68.57,47.52 L68.87,47.52 L69.18,47.52 L69.48,47.52 L69.79,47.52 L70.09,47.52 L70.40,47.52 L70.70,47.52 L71.01,47.52 L71.31,47.52 L71.62,47.52 L71.92,47.52 L72.23,47.52 L72.53,47.52 L72.84,47.52 L73.14,47.52 L73.45,47.52 L73.75,47.52 L74.06,47.52 L74.36,47.52 L74.66,47.52 L74.97,47.52 L75.27,47.52 L75.58,47.52 L75.88,47.52 L76.19,47.52 L76.49,47.52 L76.80,47.52 L77.10,47.52 L77.41,47.52 L77.71,47.52 L78.02,47.52 L78.32,47.52 L78.63,47.52 L78.93,47.52 L79.24,47.52 L79.54,47.52 L79.85,47.52 L80.15,47.52 L80.46,47.52 L80.76,47.52 L81.06,47.52 L81.37,47.52 L81.67,47.52 L81.98,47.52 L82.28,47.52 L82.59,47.52 L82.89,47.52 L83.20,47.52 L83.50,47.52 L83.81,47.52 L84.11,47.52 L84.42,47.52 L84.72,47.52 L85.03,47.52 L85.33,47.52 L85.64,47.52 L85.94,47.52 L86.25,47.52 L86.55,47.52 L86.86,47.52 L87.16,47.52 L87.47,47.52 L87.77,47.52 L88.07,47.52 L88.38,47.52 L88.68,47.52 L88.99,47.52 L89.29,47.52 L89.60,47.52 L89.90,47.52 L90.21,47.52 L90.51,47.52 L90.82,47.52 L91.12,47.52 L91.43,47.52 L91.73,47.52 L92.04,47.52 L92.34,47.52 L92.65,47.52 L92.95,47.52 L93.26,47.52 L93.56,47.52 L93.87,47.52 L94.17,47.52 L94.47,47.52 L94.78,47.52 L95.08,47.52 L95.39,47.52 L95.69,47.52 L96.00,47.52 L96.30,47.52 L96.61,47.52 L96.91,47.52 L97.22,47.52 L97.52,47.52 L97.83,47.52 L98.13,47.52 L98.44,47.52 L98.74,47.52 L99.05,47.52 L99.35,47.52 L99.66,47.52 L99.96,47.52 L100.27,47.52 L100.57,47.52 L100.87,47.52 L101.18,47.52 L101.48,47.52 L101.79,47.52 L102.09,47.52 L102.40,47.52 L102.70,47.52 L103.01,47.52 L103.31,47.52 L103.62,47.52 L103.92,47.52 L104.23,47.52 L104.53,47.52 L104.84,47.52 L105.14,47.52 L105.45,47.52 L105.75,47.52 L106.06,47.52 L106.36,47.52 L106.67,47.52 L106.97,47.52 L107.28,47.52 L107.58,47.52 L107.88,47.52 L108.19,47.52 L108.49,47.52 L108.80,47.52 L109.10,47.52 L109.41,47.52 L109.71,47.52 L110.02,47.52 L110.32,47.52 L110.63,47.52 L110.93,47.52 L111.24,47.52 L111.54,47.52 L111.85,47.52 L112.15,47.52 L112.46,47.52 L112.76,47.52 L113.07,47.52 L113.37,47.52 L113.68,47.52 L113.98,47.52 L114.28,47.52 L114.59,47.52 L114.89,47.52 L115.20,47.52 L115.50,47.52 L115.81,47.52 L116.11,47.52 L116.42,47.52 L116.72,47.52 L117.03,47.52 L117.33,47.52 L117.64,47.52 L117.94,47.52 L118.25,47.52 L118.55,47.52 L118.86,47.52 L119.16,47.52 L119.47,47.52 L119.77,47.52 L120.08,47.52 L120.38,47.52 L120.68,47.52 L120.99,47.52 L121.29,47.52 L121.60,47.52 L121.90,47.52 L122.21,47.52 L122.51,47.52 L122.82,47.52 L123.12,47.52 L123.43,47.52 L123.73,47.52 L124.04,47.52 L124.34,47.52 L124.65,47.52 L124.95,47.52 L125.26,47.52 L125.56,47.52 L125.87,47.52 L126.17,47.52 L126.48,47.52 L126.78,47.52 L127.09,47.52 L127.39,47.52 L127.69,47.52 L128.00,47.52 L128.30,47.52 L128.61,47.52 L128.91,47.52 L129.22,47.52 L129.52,47.52 L129.83,47.52 L130.13,47.52 L130.44,47.52 L130.74,47.52 L131.05,47.52 L131.35,47.52 L131.66,47.52 L131.96,47.52 L132.27,47.52 L132.57,47.52 L132.88,47.52 L133.18,47.52 L133.49,47.52 L133.79,47.52 L134.09,47.52 L134.40,47.52 L134.70,47.52 L135.01,47.52 L135.31,47.52 L135.62,47.52 L135.92,47.52 L136.23,47.52 L136.53,47.52 L136.84,47.52 L137.14,47.52 L137.45,47.52 L137.75,47.52 L138.06,47.52 L138.36,47.52 L138.67,47.52 L138.97,47.52 L139.28,47.52 L139.58,47.52 L139.89,47.52 L140.19,47.52 L140.49,47.52 L140.80,47.52 L141.10,47.52 L141.41,47.52 L141.71,47.52 L142.02,47.52 L142.32,47.52 L142.63,47.52 L142.93,47.52 L143.24,47.52 L143.54,47.52 L143.85,47.52 L144.15,47.52 L144.46,47.52 L144.76,47.52 L145.07,47.52 L145.37,47.52 L145.68,47.52 L145.98,47.52 L146.29,47.52 L146.59,47.52 L146.90,47.52 L147.20,47.52 L147.50,47.52 L147.81,47.52 L148.11,47.52 L148.42,47.52 L148.72,47.52 L149.03,47.52 L149.33,47.52 L149.64,47.52 L149.94,47.52 L150.25,47.52 L150.55,47.52 L150.86,47.52 L151.16,47.52 L151.47,47.52 L151.77,47.52 L152.08,47.52 L152.38,47.52 L152.69,47.52 L152.99,47.52 L153.30,47.52 L153.60,47.52 L153.90,47.52 L154.21,47.52 L154.51,47.52 L154.82,47.52 L155.12,47.52 L155.43,47.52 L155.73,47.52 L156.04,47.52 L156.34,47.52 L156.65,47.52 L156.95,47.52 L157.26,47.52 L157.56,47.52 L157.87,47.52 L158.17,47.52 L158.48,47.52 L158.78,47.52 L159.09,47.52 L159.39,47.52 L159.70,47.52 L160.00,47.52 L160.30,47.52 L160.61,47.52 L160.91,47.52 L161.22,47.52 L161.52,47.52 L161.83,47.52 L162.13,47.52 L162.44,47.52 L162.74,47.52 L163.05,47.52 L163.35,47.52 L163.66,47.52 L163.96,47.52 L164.27,47.52 L164.57,47.52 L164.88,47.52 L165.18,47.52 L165.49,47.52 L165.79,47.52 L166.10,47.52 L166.40,47.52 L166.71,47.52 L167.01,47.52 L167.31,47.52 L167.62,47.52 L167.92,47.52 L168.23,47.52 L168.53,47.52 L168.84,47.52 L169.14,47.52 L169.45,47.52 L169.75,47.52 L170.06,47.52 L170.36,47.52 L170.67,47.52 L170.97,47.52 L171.28,47.52 L171.58,47.52 L171.89,47.52 L172.19,47.52 L172.50,47.52 L172.80,47.52 L173.11,47.52 L173.41,47.52 L173.71,47.52 L174.02,47.52 L174.32,47.52 L174.63,47.52 L174.93,47.52 L175.24,47.52 L175.54,47.52 L175.85,47.52 L176.15,47.52 L176.46,47.52 L176.76,47.52 L177.07,47.52 L177.37,47.52 L177.68,47.52 L177.98,47.52 L178.29,47.52 L178.59,47.52 L178.90,47.52 L179.20,47.52 L179.51,47.52 L179.81,47.52 L180.11,47.52 L180.42,47.52 L180.72,47.52 L181.03,47.52 L181.33,47.52 L181.64,47.52 L181.94,47.52 L182.25,47.52 L182.55,47.52 L182.86,47.52 L183.16,47.52 L183.47,47.52 L183.77,47.52 L184.08,47.52 L184.38,47.52 L184.69,47.52 L184.99,47.52 L185.30,47.52 L185.60,47.52 L185.91,47.52 L186.21,47.52 L186.52,47.52 L186.82,47.52 L187.12,47.52 L187.43,47.52 L187.73,47.52 L188.04,47.52 L188.34,47.52 L188.65,47.52 L188.95,47.52 L189.26,47.52 L189.56,47.52 L189.87,47.52 L190.17,47.52 L190.48,47.52 L190.78,47.52 L191.09,47.52 L191.39,47.52 L191.70,47.52 L192.00,47.52 L192.31,47.52 L192.61,47.52 L192.92,47.52 L193.22,47.52 L193.52,47.52 L193.83,47.52 L194.13,47.52 L194.44,47.52 L194.74,47.52 L195.05,47.52 L195.35,47.52 L195.66,47.52 L195.96,47.52 L196.27,47.52 L196.57,47.52 L196.88,47.52 L197.18,47.52 L197.49,47.52 L197.79,47.52 L198.10,47.52 L198.40,47.52 L198.71,47.52 L199.01,47.52 L199.32,47.52 L199.62,47.52 L199.92,47.52 L200.23,47.52 L200.53,47.52 L200.84,47.52 L201.14,47.52 L201.45,47.52 L201.75,47.52 L202.06,47.52 L202.36,47.52 L202.67,47.52 L202.97,47.52 L203.28,47.52 L203.58,47.52 L203.89,47.52 L204.19,47.52 L204.50,47.52 L204.80,47.52 L205.11,47.52 L205.41,47.52 L205.72,47.52 L206.02,47.52 L206.33,47.52 L206.63,47.52 L206.93,47.52 L207.24,47.52 L207.54,47.52 L207.85,47.52 L208.15,47.52 L208.46,47.52 L208.76,47.52 L209.07,47.52 L209.37,47.52 L209.68,47.52 L209.98,47.52 L210.29,47.52 L210.59,47.52 L210.90,47.52 L211.20,47.52 L211.51,47.52 L211.81,47.52 L212.12,47.52 L212.42,47.52 L212.73,47.52 L213.03,47.52 L213.33,47.52 L213.64,47.52 L213.94,47.52 L214.25,47.52 L214.55,47.52 L214.86,47.52 L215.16,47.52 L215.47,47.52 L215.77,47.52 L216.08,47.52 L216.38,47.52 L216.69,47.52 L216.99,47.52 L217.30,47.52 L217.60,47.52 L217.91,47.52 L218.21,47.52 L218.52,47.52 L218.82,47.52 L219.13,47.52 L219.43,47.52 L219.73,47.52 L220.04,47.52 L220.34,47.52 L220.65,47.52 L220.95,47.52 L221.26,47.52 L221.56,47.52 L221.87,47.52 L222.17,47.52 L222.48,47.52 L222.78,47.52 L223.09,47.52 L223.39,47.52 L223.70,47.52 L224.00,47.52 L224.31,47.52 L224.61,47.52 L224.92,47.52 L225.22,47.52 L225.53,47.52 L225.83,47.52 L226.14,47.52 L226.44,47.52 L226.74,47.52 L227.05,47.52 L227.35,47.52 L227.66,47.52 L227.96,47.52 L228.27,47.52 L228.57,47.52 L228.88,47.52 L228.99,47.52" style="stroke-width: 2; stroke: rgb(0, 0, 0); stroke-opacity: 0.8; stroke-dasharray: 7.5, 6;"/><path d=" M228.99, 216.48 L228.99, 216.13 L228.99, 215.78 L228.99, 215.43 L228.99, 215.08 L228.99, 214.73 L228.99, 214.38 L228.99, 214.03 L228.99, 213.68 L228.99, 213.33 L228.99, 212.98 L228.99, 212.63 L228.99, 212.28 L228.99, 211.93 L228.99, 211.58 L228.99, 211.23 L228.99, 210.88 L228.99, 210.53 L228.99, 210.18 L228.99, 209.83 L228.99, 209.48 L228.99, 209.13 L228.99, 208.78 L228.99, 208.43 L228.99, 208.08 L228.99, 207.73 L228.99, 207.39 L228.99, 207.04 L228.99, 206.69 L228.99, 206.34 L228.99, 205.99 L228.99, 205.64 L228.99, 205.29 L228.99, 204.94 L228.99, 204.59 L228.99, 204.24 L228.99, 203.89 L228.99, 203.54 L228.99, 203.19 L228.99, 202.84 L228.99, 202.49 L228.99, 202.14 L228.99, 201.79 L228.99, 201.44 L228.99, 201.09 L228.99, 200.74 L228.99, 200.39 L228.99, 200.04 L228.99, 199.69 L228.99, 199.34 L228.99, 198.99 L228.99, 198.64 L228.99, 198.29 L228.99, 197.94 L228.99, 197.59 L228.99, 197.24 L228.99, 196.89 L228.99, 196.54 L228.99, 196.19 L228.99, 195.84 L228.99, 195.49 L228.99, 195.14 L228.99, 194.79 L228.99, 194.44 L228.99, 194.09 L228.99, 193.74 L228.99, 193.39 L228.99, 193.04 L228.99, 192.69 L228.99, 192.34 L228.99, 191.99 L228.99, 191.64 L228.99, 191.29 L228.99, 190.94 L228.99, 190.59 L228.99, 190.24 L228.99, 189.89 L228.99, 189.54 L228.99, 189.19 L228.99, 188.85 L228.99, 188.50 L228.99, 188.15 L228.99, 187.80 L228.99, 187.45 L228.99, 187.10 L228.99, 186.75 L228.99, 186.40 L228.99, 186.05 L228.99, 185.70 L228.99, 185.35 L228.99, 185.00 L228.99, 184.65 L228.99, 184.30 L228.99, 183.95 L228.99, 183.60 L228.99, 183.25 L228.99, 182.90 L228.99, 182.55 L228.99, 182.20 L228.99, 181.85 L228.99, 181.50 L228.99, 181.15 L228.99, 180.80 L228.99, 180.45 L228.99, 180.10 L228.99, 179.75 L228.99, 179.40 L228.99, 179.05 L228.99, 178.70 L228.99, 178.35 L228.99, 178.00 L228.99, 177.65 L228.99, 177.30 L228.99, 176.95 L228.99, 176.60 L228.99, 176.25 L228.99, 175.90 L228.99, 175.55 L228.99, 175.20 L228.99, 174.85 L228.99, 174.50 L228.99, 174.15 L228.99, 173.80 L228.99, 173.45 L228.99, 173.10 L228.99, 172.75 L228.99, 172.40 L228.99, 172.05 L228.99, 171.70 L228.99, 171.35 L228.99, 171.00 L228.99, 170.65 L228.99, 170.31 L228.99, 169.96 L228.99, 169.61 L228.99, 169.26 L228.99, 168.91 L228.99, 168.56 L228.99, 168.21 L228.99, 167.86 L228.99, 167.51 L228.99, 167.16 L228.99, 166.81 L228.99, 166.46 L228.99, 166.11 L228.99, 165.76 L228.99, 165.41 L228.99, 165.06 L228.99, 164.71 L228.99, 164.36 L228.99, 164.01 L228.99, 163.66 L228.99, 163.31 L228.99, 162.96 L228.99, 162.61 L228.99, 162.26 L228.99, 161.91 L228.99, 161.56 L228.99, 161.21 L228.99, 160.86 L228.99, 160.51 L228.99, 160.16 L228.99, 159.81 L228.99, 159.46 L228.99, 159.11 L228.99, 158.76 L228.99, 158.41 L228.99, 158.06 L228.99, 157.71 L228.99, 157.36 L228.99, 157.01 L228.99, 156.66 L228.99, 156.31 L228.99, 155.96 L228.99, 155.61 L228.99, 155.26 L228.99, 154.91 L228.99, 154.56 L228.99, 154.21 L228.99, 153.86 L228.99, 153.51 L228.99, 153.16 L228.99, 152.81 L228.99, 152.46 L228.99, 152.11 L228.99, 151.77 L228.99, 151.42 L228.99, 151.07 L228.99, 150.72 L228.99, 150.37 L228.99, 150.02 L228.99, 149.67 L228.99, 149.32 L228.99, 148.97 L228.99, 148.62 L228.99, 148.27 L228.99, 147.92 L228.99, 147.57 L228.99, 147.22 L228.99, 146.87 L228.99, 146.52 L228.99, 146.17 L228.99, 145.82 L228.99, 145.47 L228.99, 145.12 L228.99, 144.77 L228.99, 144.42 L228.99, 144.07 L228.99, 143.72 L228.99, 143.37 L228.99, 143.02 L228.99, 142.67 L228.99, 142.32 L228.99, 141.97 L228.99, 141.62 L228.99, 141.27 L228.99, 140.92 L228.99, 140.57 L228.99, 140.22 L228.99, 139.87 L228.99, 139.52 L228.99, 139.17 L228.99, 138.82 L228.99, 138.47 L228.99, 138.12 L228.99, 137.77 L228.99, 137.42 L228.99, 137.07 L228.99, 136.72 L228.99, 136.37 L228.99, 136.02 L228.99, 135.67 L228.99, 135.32 L228.99, 134.97 L228.99, 134.62 L228.99, 134.27 L228.99, 133.92 L228.99, 133.57 L228.99, 133.23 L228.99, 132.88 L228.99, 132.53 L228.99, 132.18 L228.99, 131.83 L228.99, 131.48 L228.99, 131.13 L228.99, 130.78 L228.99, 130.43 L228.99, 130.08 L228.99, 129.73 L228.99, 129.38 L228.99, 129.03 L228.99, 128.68 L228.99, 128.33 L228.99, 127.98 L228.99, 127.63 L228.99, 127.28 L228.99, 126.93 L228.99, 126.58 L228.99, 126.23 L228.99, 125.88 L228.99, 125.53 L228.99, 125.18 L228.99, 124.83 L228.99, 124.48 L228.99, 124.13 L228.99, 123.78 L228.99, 123.43 L228.99, 123.08 L228.99, 122.73 L228.99, 122.38 L228.99, 122.03 L228.99, 121.68 L228.99, 121.33 L228.99, 120.98 L228.99, 120.63 L228.99, 120.28 L228.99, 119.93 L228.99, 119.58 L228.99, 119.23 L228.99, 118.88 L228.99, 118.53 L228.99, 118.18 L228.99, 117.83 L228.99, 117.48 L228.99, 117.13 L228.99, 116.78 L228.99, 116.43 L228.99, 116.08 L228.99, 115.73 L228.99, 115.38 L228.99, 115.03 L228.99, 114.69 L228.99, 114.34 L228.99, 113.99 L228.99, 113.64 L228.99, 113.29 L228.99, 112.94 L228.99, 112.59 L228.99, 112.24 L228.99, 111.89 L228.99, 111.54 L228.99, 111.19 L228.99, 110.84 L228.99, 110.49 L228.99, 110.14 L228.99, 109.79 L228.99, 109.44 L228.99, 109.09 L228.99, 108.74 L228.99, 108.39 L228.99, 108.04 L228.99, 107.69 L228.99, 107.34 L228.99, 106.99 L228.99, 106.64 L228.99, 106.29 L228.99, 105.94 L228.99, 105.59 L228.99, 105.24 L228.99, 104.89 L228.99, 104.54 L228.99, 104.19 L228.99, 103.84 L228.99, 103.49 L228.99, 103.14 L228.99, 102.79 L228.99, 102.44 L228.99, 102.09 L228.99, 101.74 L228.99, 101.39 L228.99, 101.04 L228.99, 100.69 L228.99, 100.34 L228.99, 99.99 L228.99, 99.64 L228.99, 99.29 L228.99, 98.94 L228.99, 98.59 L228.99, 98.24 L228.99, 97.89 L228.99, 97.54 L228.99, 97.19 L228.99, 96.84 L228.99, 96.49 L228.99, 96.15 L228.99, 95.80 L228.99, 95.45 L228.99, 95.10 L228.99, 94.75 L228.99, 94.40 L228.99, 94.05 L228.99, 93.70 L228.99, 93.35 L228.99, 93.00 L228.99, 92.65 L228.99, 92.30 L228.99, 91.95 L228.99, 91.60 L228.99, 91.25 L228.99, 90.90 L228.99, 90.55 L228.99, 90.20 L228.99, 89.85 L228.99, 89.50 L228.99, 89.15 L228.99, 88.80 L228.99, 88.45 L228.99, 88.10 L228.99, 87.75 L228.99, 87.40 L228.99, 87.05 L228.99, 86.70 L228.99, 86.35 L228.99, 86.00 L228.99, 85.65 L228.99, 85.30 L228.99, 84.95 L228.99, 84.60 L228.99, 84.25 L228.99, 83.90 L228.99, 83.55 L228.99, 83.20 L228.99, 82.85 L228.99, 82.50 L228.99, 82.15 L228.99, 81.80 L228.99, 81.45 L228.99, 81.10 L228.99, 80.75 L228.99, 80.40 L228.99, 80.05 L228.99, 79.70 L228.99, 79.35 L228.99, 79.00 L228.99, 78.65 L228.99, 78.30 L228.99, 77.95 L228.99, 77.61 L228.99, 77.26 L228.99, 76.91 L228.99, 76.56 L228.99, 76.21 L228.99, 75.86 L228.99, 75.51 L228.99, 75.16 L228.99, 74.81 L228.99, 74.46 L228.99, 74.11 L228.99, 73.76 L228.99, 73.41 L228.99, 73.06 L228.99, 72.71 L228.99, 72.36 L228.99, 72.01 L228.99, 71.66 L228.99, 71.31 L228.99, 70.96 L228.99, 70.61 L228.99, 70.26 L228.99, 69.91 L228.99, 69.56 L228.99, 69.21 L228.99, 68.86 L228.99, 68.51 L228.99, 68.16 L228.99, 67.81 L228.99, 67.46 L228.99, 67.11 L228.99, 66.76 L228.99, 66.41 L228.99, 66.06 L228.99, 65.71 L228.99, 65.36 L228.99, 65.01 L228.99, 64.66 L228.99, 64.31 L228.99, 63.96 L228.99, 63.61 L228.99, 63.26 L228.99, 62.91 L228.99, 62.56 L228.99, 62.21 L228.99, 61.86 L228.99, 61.51 L228.99, 61.16 L228.99, 60.81 L228.99, 60.46 L228.99, 60.11 L228.99, 59.76 L228.99, 59.41 L228.99, 59.07 L228.99, 58.72 L228.99, 58.37 L228.99, 58.02 L228.99, 57.67 L228.99, 57.32 L228.99, 56.97 L228.99, 56.62 L228.99, 56.27 L228.99, 55.92 L228.99, 55.57 L228.99, 55.22 L228.99, 54.87 L228.99, 54.52 L228.99, 54.17 L228.99, 53.82 L228.99, 53.47 L228.99, 53.12 L228.99, 52.77 L228.99, 52.42 L228.99, 52.07 L228.99, 51.72 L228.99, 51.37 L228.99, 51.02 L228.99, 50.67 L228.99, 50.32 L228.99, 49.97 L228.99, 49.62 L228.99, 49.27 L228.99, 48.92 L228.99, 48.57 L228.99, 48.22 L228.99, 47.87 L228.99, 47.52" style="stroke-width: 2; stroke: rgb(0, 0, 0); stroke-opacity: 0.8; stroke-dasharray: 7.5, 6;"/><path d=" M60.04,160.16 L60.10,160.16 L60.17,160.16 L60.24,160.16 L60.31,160.16 L60.37,160.16 L60.44,160.16 L60.51,160.16 L60.58,160.16 L60.65,160.16 L60.71,160.16 L60.78,160.16 L60.85,160.16 L60.92,160.16 L60.98,160.16 L61.05,160.16 L61.12,160.16 L61.19,160.16 L61.25,160.16 L61.32,160.16 L61.39,160.16 L61.46,160.16 L61.53,160.16 L61.59,160.16 L61.66,160.16 L61.73,160.16 L61.80,160.16 L61.86,160.16 L61.93,160.16 L62.00,160.16 L62.07,160.16 L62.14,160.16 L62.20,160.16 L62.27,160.16 L62.34,160.16 L62.41,160.16 L62.47,160.16 L62.54,160.16 L62.61,160.16 L62.68,160.16 L62.74,160.16 L62.81,160.16 L62.88,160.16 L62.95,160.16 L63.02,160.16 L63.08,160.16 L63.15,160.16 L63.22,160.16 L63.29,160.16 L63.35,160.16 L63.42,160.16 L63.49,160.16 L63.56,160.16 L63.63,160.16 L63.69,160.16 L63.76,160.16 L63.83,160.16 L63.90,160.16 L63.96,160.16 L64.03,160.16 L64.10,160.16 L64.17,160.16 L64.23,160.16 L64.30,160.16 L64.37,160.16 L64.44,160.16 L64.51,160.16 L64.57,160.16 L64.64,160.16 L64.71,160.16 L64.78,160.16 L64.84,160.16 L64.91,160.16 L64.98,160.16 L65.05,160.16 L65.12,160.16 L65.18,160.16 L65.25,160.16 L65.32,160.16 L65.39,160.16 L65.45,160.16 L65.52,160.16 L65.59,160.16 L65.66,160.16 L65.72,160.16 L65.79,160.16 L65.86,160.16 L65.93,160.16 L66.00,160.16 L66.06,160.16 L66.13,160.16 L66.20,160.16 L66.27,160.16 L66.33,160.16 L66.40,160.16 L66.47,160.16 L66.54,160.16 L66.61,160.16 L66.67,160.16 L66.74,160.16 L66.81,160.16 L66.88,160.16 L66.94,160.16 L67.01,160.16 L67.08,160.16 L67.15,160.16 L67.21,160.16 L67.28,160.16 L67.35,160.16 L67.42,160.16 L67.49,160.16 L67.55,160.16 L67.62,160.16 L67.69,160.16 L67.76,160.16 L67.82,160.16 L67.89,160.16 L67.96,160.16 L68.03,160.16 L68.10,160.16 L68.16,160.16 L68.23,160.16 L68.30,160.16 L68.37,160.16 L68.43,160.16 L68.50,160.16 L68.57,160.16 L68.64,160.16 L68.70,160.16 L68.77,160.16 L68.84,160.16 L68.91,160.16 L68.98,160.16 L69.04,160.16 L69.11,160.16 L69.18,160.16 L69.25,160.16 L69.31,160.16 L69.38,160.16 L69.45,160.16 L69.52,160.16 L69.59,160.16 L69.65,160.16 L69.72,160.16 L69.79,160.16 L69.86,160.16 L69.92,160.16 L69.99,160.16 L70.06,160.16 L70.13,160.16 L70.19,160.16 L70.26,160.16 L70.33,160.16 L70.40,160.16 L70.47,160.16 L70.53,160.16 L70.60,160.16 L70.67,160.16 L70.74,160.16 L70.80,160.16 L70.87,160.16 L70.94,160.16 L71.01,160.16 L71.08,160.16 L71.14,160.16 L71.21,160.16 L71.28,160.16 L71.35,160.16 L71.41,160.16 L71.48,160.16 L71.55,160.16 L71.62,160.16 L71.68,160.16 L71.75,160.16 L71.82,160.16 L71.89,160.16 L71.96,160.16 L72.02,160.16 L72.09,160.16 L72.16,160.16 L72.23,160.16 L72.29,160.16 L72.36,160.16 L72.43,160.16 L72.50,160.16 L72.57,160.16 L72.63,160.16 L72.70,160.16 L72.77,160.16 L72.84,160.16 L72.90,160.16 L72.97,160.16 L73.04,160.16 L73.11,160.16 L73.17,160.16 L73.24,160.16 L73.31,160.16 L73.38,160.16 L73.45,160.16 L73.51,160.16 L73.58,160.16 L73.65,160.16 L73.72,160.16 L73.78,160.16 L73.85,160.16 L73.92,160.16 L73.99,160.16 L74.06,160.16 L74.12,160.16 L74.19,160.16 L74.26,160.16 L74.33,160.16 L74.39,160.16 L74.46,160.16 L74.53,160.16 L74.60,160.16 L74.66,160.16 L74.73,160.16 L74.80,160.16 L74.87,160.16 L74.94,160.16 L75.00,160.16 L75.07,160.16 L75.14,160.16 L75.21,160.16 L75.27,160.16 L75.34,160.16 L75.41,160.16 L75.48,160.16 L75.55,160.16 L75.61,160.16 L75.68,160.16 L75.75,160.16 L75.82,160.16 L75.88,160.16 L75.95,160.16 L76.02,160.16 L76.09,160.16 L76.15,160.16 L76.22,160.16 L76.29,160.16 L76.36,160.16 L76.43,160.16 L76.49,160.16 L76.56,160.16 L76.63,160.16 L76.70,160.16 L76.76,160.16 L76.83,160.16 L76.90,160.16 L76.97,160.16 L77.04,160.16 L77.10,160.16 L77.17,160.16 L77.24,160.16 L77.31,160.16 L77.37,160.16 L77.44,160.16 L77.51,160.16 L77.58,160.16 L77.64,160.16 L77.71,160.16 L77.78,160.16 L77.85,160.16 L77.92,160.16 L77.98,160.16 L78.05,160.16 L78.12,160.16 L78.19,160.16 L78.25,160.16 L78.32,160.16 L78.39,160.16 L78.46,160.16 L78.53,160.16 L78.59,160.16 L78.66,160.16 L78.73,160.16 L78.80,160.16 L78.86,160.16 L78.93,160.16 L79.00,160.16 L79.07,160.16 L79.13,160.16 L79.20,160.16 L79.27,160.16 L79.34,160.16 L79.41,160.16 L79.47,160.16 L79.54,160.16 L79.61,160.16 L79.68,160.16 L79.74,160.16 L79.81,160.16 L79.88,160.16 L79.95,160.16 L80.02,160.16 L80.08,160.16 L80.15,160.16 L80.22,160.16 L80.29,160.16 L80.35,160.16 L80.42,160.16 L80.49,160.16 L80.56,160.16 L80.62,160.16 L80.69,160.16 L80.76,160.16 L80.83,160.16 L80.90,160.16 L80.96,160.16 L81.03,160.16 L81.10,160.16 L81.17,160.16 L81.23,160.16 L81.30,160.16 L81.37,160.16 L81.44,160.16 L81.51,160.16 L81.57,160.16 L81.64,160.16 L81.71,160.16 L81.78,160.16 L81.84,160.16 L81.91,160.16 L81.98,160.16 L82.05,160.16 L82.11,160.16 L82.18,160.16 L82.25,160.16 L82.32,160.16 L82.39,160.16 L82.45,160.16 L82.52,160.16 L82.59,160.16 L82.66,160.16 L82.72,160.16 L82.79,160.16 L82.86,160.16 L82.93,160.16 L83.00,160.16 L83.06,160.16 L83.13,160.16 L83.20,160.16 L83.27,160.16 L83.33,160.16 L83.40,160.16 L83.47,160.16 L83.54,160.16 L83.60,160.16 L83.67,160.16 L83.74,160.16 L83.81,160.16 L83.88,160.16 L83.94,160.16 L84.01,160.16 L84.08,160.16 L84.15,160.16 L84.21,160.16 L84.28,160.16 L84.35,160.16 L84.42,160.16 L84.49,160.16 L84.55,160.16 L84.62,160.16 L84.69,160.16 L84.76,160.16 L84.82,160.16 L84.89,160.16 L84.96,160.16 L85.03,160.16 L85.09,160.16 L85.16,160.16 L85.23,160.16 L85.30,160.16 L85.37,160.16 L85.43,160.16 L85.50,160.16 L85.57,160.16 L85.64,160.16 L85.70,160.16 L85.77,160.16 L85.84,160.16 L85.91,160.16 L85.98,160.16 L86.04,160.16 L86.11,160.16 L86.18,160.16 L86.25,160.16 L86.31,160.16 L86.38,160.16 L86.45,160.16 L86.52,160.16 L86.58,160.16 L86.65,160.16 L86.72,160.16 L86.79,160.16 L86.86,160.16 L86.92,160.16 L86.99,160.16 L87.06,160.16 L87.13,160.16 L87.19,160.16 L87.26,160.16 L87.33,160.16 L87.40,160.16 L87.47,160.16 L87.53,160.16 L87.60,160.16 L87.67,160.16 L87.74,160.16 L87.80,160.16 L87.87,160.16 L87.94,160.16 L88.01,160.16 L88.07,160.16 L88.14,160.16 L88.21,160.16 L88.28,160.16 L88.35,160.16 L88.41,160.16 L88.48,160.16 L88.55,160.16 L88.62,160.16 L88.68,160.16 L88.75,160.16 L88.82,160.16 L88.89,160.16 L88.96,160.16 L89.02,160.16 L89.09,160.16 L89.16,160.16 L89.23,160.16 L89.29,160.16 L89.36,160.16 L89.43,160.16 L89.50,160.16 L89.56,160.16 L89.63,160.16 L89.70,160.16 L89.77,160.16 L89.84,160.16 L89.90,160.16 L89.97,160.16 L90.04,160.16 L90.11,160.16 L90.17,160.16 L90.24,160.16 L90.31,160.16 L90.38,160.16 L90.44,160.16 L90.51,160.16 L90.58,160.16 L90.65,160.16 L90.72,160.16 L90.78,160.16 L90.85,160.16 L90.92,160.16 L90.99,160.16 L91.05,160.16 L91.12,160.16 L91.19,160.16 L91.26,160.16 L91.33,160.16 L91.39,160.16 L91.46,160.16 L91.53,160.16 L91.60,160.16 L91.66,160.16 L91.73,160.16 L91.80,160.16 L91.87,160.16 L91.93,160.16 L92.00,160.16 L92.07,160.16 L92.14,160.16 L92.21,160.16 L92.27,160.16 L92.34,160.16 L92.41,160.16 L92.48,160.16 L92.54,160.16 L92.61,160.16 L92.68,160.16 L92.75,160.16 L92.82,160.16 L92.88,160.16 L92.95,160.16 L93.02,160.16 L93.09,160.16 L93.15,160.16 L93.22,160.16 L93.29,160.16 L93.36,160.16 L93.42,160.16 L93.49,160.16 L93.56,160.16 L93.63,160.16 L93.70,160.16 L93.76,160.16 L93.83,160.16 L93.90,160.16 L93.97,160.16 L94.03,160.16 L94.10,160.16 L94.17,160.16 L94.24,160.16 L94.31,160.16 L94.37,160.16 L94.44,160.16 L94.51,160.16 L94.58,160.16 L94.64,160.16 L94.71,160.16 L94.78,160.16 L94.85,160.16 L94.91,160.16 L94.98,160.16 L95.05,160.16 L95.12,160.16 L95.19,160.16 L95.25,160.16 L95.32,160.16 L95.39,160.16 L95.46,160.16 L95.52,160.16 L95.59,160.16 L95.66,160.16 L95.73,160.16 L95.80,160.16 L95.86,160.16 L95.93,160.16 L96.00,160.16 L96.07,160.16 L96.13,160.16 L96.20,160.16 L96.27,160.16 L96.34,160.16 L96.40,160.16 L96.47,160.16 L96.54,160.16 L96.61,160.16 L96.68,160.16 L96.74,160.16 L96.81,160.16 L96.88,160.16 L96.95,160.16 L97.01,160.16 L97.08,160.16 L97.15,160.16 L97.22,160.16 L97.29,160.16 L97.35,160.16 L97.42,160.16 L97.49,160.16 L97.56,160.16 L97.58,160.16" style="stroke-width: 2; stroke: rgb(0, 0, 0); stroke-opacity: 1; stroke-dasharray: 7.5, 6;"/><path d=" M97.58, 216.48 L97.58, 216.36 L97.58, 216.25 L97.58, 216.13 L97.58, 216.01 L97.58, 215.90 L97.58, 215.78 L97.58, 215.66 L97.58, 215.55 L97.58, 215.43 L97.58, 215.31 L97.58, 215.20 L97.58, 215.08 L97.58, 214.96 L97.58, 214.85 L97.58, 214.73 L97.58, 214.61 L97.58, 214.50 L97.58, 214.38 L97.58, 214.26 L97.58, 214.15 L97.58, 214.03 L97.58, 213.91 L97.58, 213.80 L97.58, 213.68 L97.58, 213.57 L97.58, 213.45 L97.58, 213.33 L97.58, 213.22 L97.58, 213.10 L97.58, 212.98 L97.58, 212.87 L97.58, 212.75 L97.58, 212.63 L97.58, 212.52 L97.58, 212.40 L97.58, 212.28 L97.58, 212.17 L97.58, 212.05 L97.58, 211.93 L97.58, 211.82 L97.58, 211.70 L97.58, 211.58 L97.58, 211.47 L97.58, 211.35 L97.58, 211.23 L97.58, 211.12 L97.58, 211.00 L97.58, 210.88 L97.58, 210.77 L97.58, 210.65 L97.58, 210.53 L97.58, 210.42 L97.58, 210.30 L97.58, 210.18 L97.58, 210.07 L97.58, 209.95 L97.58, 209.83 L97.58, 209.72 L97.58, 209.60 L97.58, 209.48 L97.58, 209.37 L97.58, 209.25 L97.58, 209.13 L97.58, 209.02 L97.58, 208.90 L97.58, 208.78 L97.58, 208.67 L97.58, 208.55 L97.58, 208.43 L97.58, 208.32 L97.58, 208.20 L97.58, 208.08 L97.58, 207.97 L97.58, 207.85 L97.58, 207.73 L97.58, 207.62 L97.58, 207.50 L97.58, 207.39 L97.58, 207.27 L97.58, 207.15 L97.58, 207.04 L97.58, 206.92 L97.58, 206.80 L97.58, 206.69 L97.58, 206.57 L97.58, 206.45 L97.58, 206.34 L97.58, 206.22 L97.58, 206.10 L97.58, 205.99 L97.58, 205.87 L97.58, 205.75 L97.58, 205.64 L97.58, 205.52 L97.58, 205.40 L97.58, 205.29 L97.58, 205.17 L97.58, 205.05 L97.58, 204.94 L97.58, 204.82 L97.58, 204.70 L97.58, 204.59 L97.58, 204.47 L97.58, 204.35 L97.58, 204.24 L97.58, 204.12 L97.58, 204.00 L97.58, 203.89 L97.58, 203.77 L97.58, 203.65 L97.58, 203.54 L97.58, 203.42 L97.58, 203.30 L97.58, 203.19 L97.58, 203.07 L97.58, 202.95 L97.58, 202.84 L97.58, 202.72 L97.58, 202.60 L97.58, 202.49 L97.58, 202.37 L97.58, 202.25 L97.58, 202.14 L97.58, 202.02 L97.58, 201.90 L97.58, 201.79 L97.58, 201.67 L97.58, 201.55 L97.58, 201.44 L97.58, 201.32 L97.58, 201.21 L97.58, 201.09 L97.58, 200.97 L97.58, 200.86 L97.58, 200.74 L97.58, 200.62 L97.58, 200.51 L97.58, 200.39 L97.58, 200.27 L97.58, 200.16 L97.58, 200.04 L97.58, 199.92 L97.58, 199.81 L97.58, 199.69 L97.58, 199.57 L97.58, 199.46 L97.58, 199.34 L97.58, 199.22 L97.58, 199.11 L97.58, 198.99 L97.58, 198.87 L97.58, 198.76 L97.58, 198.64 L97.58, 198.52 L97.58, 198.41 L97.58, 198.29 L97.58, 198.17 L97.58, 198.06 L97.58, 197.94 L97.58, 197.82 L97.58, 197.71 L97.58, 197.59 L97.58, 197.47 L97.58, 197.36 L97.58, 197.24 L97.58, 197.12 L97.58, 197.01 L97.58, 196.89 L97.58, 196.77 L97.58, 196.66 L97.58, 196.54 L97.58, 196.42 L97.58, 196.31 L97.58, 196.19 L97.58, 196.07 L97.58, 195.96 L97.58, 195.84 L97.58, 195.72 L97.58, 195.61 L97.58, 195.49 L97.58, 195.37 L97.58, 195.26 L97.58, 195.14 L97.58, 195.03 L97.58, 194.91 L97.58, 194.79 L97.58, 194.68 L97.58, 194.56 L97.58, 194.44 L97.58, 194.33 L97.58, 194.21 L97.58, 194.09 L97.58, 193.98 L97.58, 193.86 L97.58, 193.74 L97.58, 193.63 L97.58, 193.51 L97.58, 193.39 L97.58, 193.28 L97.58, 193.16 L97.58, 193.04 L97.58, 192.93 L97.58, 192.81 L97.58, 192.69 L97.58, 192.58 L97.58, 192.46 L97.58, 192.34 L97.58, 192.23 L97.58, 192.11 L97.58, 191.99 L97.58, 191.88 L97.58, 191.76 L97.58, 191.64 L97.58, 191.53 L97.58, 191.41 L97.58, 191.29 L97.58, 191.18 L97.58, 191.06 L97.58, 190.94 L97.58, 190.83 L97.58, 190.71 L97.58, 190.59 L97.58, 190.48 L97.58, 190.36 L97.58, 190.24 L97.58, 190.13 L97.58, 190.01 L97.58, 189.89 L97.58, 189.78 L97.58, 189.66 L97.58, 189.54 L97.58, 189.43 L97.58, 189.31 L97.58, 189.19 L97.58, 189.08 L97.58, 188.96 L97.58, 188.85 L97.58, 188.73 L97.58, 188.61 L97.58, 188.50 L97.58, 188.38 L97.58, 188.26 L97.58, 188.15 L97.58, 188.03 L97.58, 187.91 L97.58, 187.80 L97.58, 187.68 L97.58, 187.56 L97.58, 187.45 L97.58, 187.33 L97.58, 187.21 L97.58, 187.10 L97.58, 186.98 L97.58, 186.86 L97.58, 186.75 L97.58, 186.63 L97.58, 186.51 L97.58, 186.40 L97.58, 186.28 L97.58, 186.16 L97.58, 186.05 L97.58, 185.93 L97.58, 185.81 L97.58, 185.70 L97.58, 185.58 L97.58, 185.46 L97.58, 185.35 L97.58, 185.23 L97.58, 185.11 L97.58, 185.00 L97.58, 184.88 L97.58, 184.76 L97.58, 184.65 L97.58, 184.53 L97.58, 184.41 L97.58, 184.30 L97.58, 184.18 L97.58, 184.06 L97.58, 183.95 L97.58, 183.83 L97.58, 183.71 L97.58, 183.60 L97.58, 183.48 L97.58, 183.36 L97.58, 183.25 L97.58, 183.13 L97.58, 183.01 L97.58, 182.90 L97.58, 182.78 L97.58, 182.67 L97.58, 182.55 L97.58, 182.43 L97.58, 182.32 L97.58, 182.20 L97.58, 182.08 L97.58, 181.97 L97.58, 181.85 L97.58, 181.73 L97.58, 181.62 L97.58, 181.50 L97.58, 181.38 L97.58, 181.27 L97.58, 181.15 L97.58, 181.03 L97.58, 180.92 L97.58, 180.80 L97.58, 180.68 L97.58, 180.57 L97.58, 180.45 L97.58, 180.33 L97.58, 180.22 L97.58, 180.10 L97.58, 179.98 L97.58, 179.87 L97.58, 179.75 L97.58, 179.63 L97.58, 179.52 L97.58, 179.40 L97.58, 179.28 L97.58, 179.17 L97.58, 179.05 L97.58, 178.93 L97.58, 178.82 L97.58, 178.70 L97.58, 178.58 L97.58, 178.47 L97.58, 178.35 L97.58, 178.23 L97.58, 178.12 L97.58, 178.00 L97.58, 177.88 L97.58, 177.77 L97.58, 177.65 L97.58, 177.53 L97.58, 177.42 L97.58, 177.30 L97.58, 177.18 L97.58, 177.07 L97.58, 176.95 L97.58, 176.83 L97.58, 176.72 L97.58, 176.60 L97.58, 176.49 L97.58, 176.37 L97.58, 176.25 L97.58, 176.14 L97.58, 176.02 L97.58, 175.90 L97.58, 175.79 L97.58, 175.67 L97.58, 175.55 L97.58, 175.44 L97.58, 175.32 L97.58, 175.20 L97.58, 175.09 L97.58, 174.97 L97.58, 174.85 L97.58, 174.74 L97.58, 174.62 L97.58, 174.50 L97.58, 174.39 L97.58, 174.27 L97.58, 174.15 L97.58, 174.04 L97.58, 173.92 L97.58, 173.80 L97.58, 173.69 L97.58, 173.57 L97.58, 173.45 L97.58, 173.34 L97.58, 173.22 L97.58, 173.10 L97.58, 172.99 L97.58, 172.87 L97.58, 172.75 L97.58, 172.64 L97.58, 172.52 L97.58, 172.40 L97.58, 172.29 L97.58, 172.17 L97.58, 172.05 L97.58, 171.94 L97.58, 171.82 L97.58, 171.70 L97.58, 171.59 L97.58, 171.47 L97.58, 171.35 L97.58, 171.24 L97.58, 171.12 L97.58, 171.00 L97.58, 170.89 L97.58, 170.77 L97.58, 170.65 L97.58, 170.54 L97.58, 170.42 L97.58, 170.31 L97.58, 170.19 L97.58, 170.07 L97.58, 169.96 L97.58, 169.84 L97.58, 169.72 L97.58, 169.61 L97.58, 169.49 L97.58, 169.37 L97.58, 169.26 L97.58, 169.14 L97.58, 169.02 L97.58, 168.91 L97.58, 168.79 L97.58, 168.67 L97.58, 168.56 L97.58, 168.44 L97.58, 168.32 L97.58, 168.21 L97.58, 168.09 L97.58, 167.97 L97.58, 167.86 L97.58, 167.74 L97.58, 167.62 L97.58, 167.51 L97.58, 167.39 L97.58, 167.27 L97.58, 167.16 L97.58, 167.04 L97.58, 166.92 L97.58, 166.81 L97.58, 166.69 L97.58, 166.57 L97.58, 166.46 L97.58, 166.34 L97.58, 166.22 L97.58, 166.11 L97.58, 165.99 L97.58, 165.87 L97.58, 165.76 L97.58, 165.64 L97.58, 165.52 L97.58, 165.41 L97.58, 165.29 L97.58, 165.17 L97.58, 165.06 L97.58, 164.94 L97.58, 164.82 L97.58, 164.71 L97.58, 164.59 L97.58, 164.47 L97.58, 164.36 L97.58, 164.24 L97.58, 164.13 L97.58, 164.01 L97.58, 163.89 L97.58, 163.78 L97.58, 163.66 L97.58, 163.54 L97.58, 163.43 L97.58, 163.31 L97.58, 163.19 L97.58, 163.08 L97.58, 162.96 L97.58, 162.84 L97.58, 162.73 L97.58, 162.61 L97.58, 162.49 L97.58, 162.38 L97.58, 162.26 L97.58, 162.14 L97.58, 162.03 L97.58, 161.91 L97.58, 161.79 L97.58, 161.68 L97.58, 161.56 L97.58, 161.44 L97.58, 161.33 L97.58, 161.21 L97.58, 161.09 L97.58, 160.98 L97.58, 160.86 L97.58, 160.74 L97.58, 160.63 L97.58, 160.51 L97.58, 160.39 L97.58, 160.28 L97.58, 160.16" style="stroke-width: 2; stroke: rgb(0, 0, 0); stroke-opacity: 1; stroke-dasharray: 7.5, 6;"/><path d=" M135.13, 216.48 L135.13, 216.21 L135.13, 215.94 L135.13, 215.66 L135.13, 215.39 L135.13, 215.12 L135.13, 214.85 L135.13, 214.58 L135.13, 214.30 L135.13, 214.03 L135.13, 213.76 L135.13, 213.49 L135.13, 213.22 L135.13, 212.94 L135.13, 212.67 L135.13, 212.40 L135.13, 212.13 L135.13, 211.85 L135.13, 211.58 L135.13, 211.31 L135.13, 211.04 L135.13, 210.77 L135.13, 210.49 L135.13, 210.22 L135.13, 209.95 L135.13, 209.68 L135.13, 209.41 L135.13, 209.13 L135.13, 208.86 L135.13, 208.59 L135.13, 208.32 L135.13, 208.05 L135.13, 207.77 L135.13, 207.50 L135.13, 207.23 L135.13, 206.96 L135.13, 206.69 L135.13, 206.41 L135.13, 206.14 L135.13, 205.87 L135.13, 205.60 L135.13, 205.33 L135.13, 205.05 L135.13, 204.78 L135.13, 204.51 L135.13, 204.24 L135.13, 203.96 L135.13, 203.69 L135.13, 203.42 L135.13, 203.15 L135.13, 202.88 L135.13, 202.60 L135.13, 202.33 L135.13, 202.06 L135.13, 201.79 L135.13, 201.52 L135.13, 201.24 L135.13, 200.97 L135.13, 200.70 L135.13, 200.43 L135.13, 200.16 L135.13, 199.88 L135.13, 199.61 L135.13, 199.34 L135.13, 199.07 L135.13, 198.80 L135.13, 198.52 L135.13, 198.25 L135.13, 197.98 L135.13, 197.71 L135.13, 197.43 L135.13, 197.16 L135.13, 196.89 L135.13, 196.62 L135.13, 196.35 L135.13, 196.07 L135.13, 195.80 L135.13, 195.53 L135.13, 195.26 L135.13, 194.99 L135.13, 194.71 L135.13, 194.44 L135.13, 194.17 L135.13, 193.90 L135.13, 193.63 L135.13, 193.35 L135.13, 193.08 L135.13, 192.81 L135.13, 192.54 L135.13, 192.27 L135.13, 191.99 L135.13, 191.72 L135.13, 191.45 L135.13, 191.18 L135.13, 190.91 L135.13, 190.63 L135.13, 190.36 L135.13, 190.09 L135.13, 189.82 L135.13, 189.54 L135.13, 189.27 L135.13, 189.00 L135.13, 188.73 L135.13, 188.46 L135.13, 188.18 L135.13, 187.91 L135.13, 187.64 L135.13, 187.37 L135.13, 187.10 L135.13, 186.82 L135.13, 186.55 L135.13, 186.28 L135.13, 186.01 L135.13, 185.74 L135.13, 185.46 L135.13, 185.19 L135.13, 184.92 L135.13, 184.65 L135.13, 184.38 L135.13, 184.10 L135.13, 183.83 L135.13, 183.56 L135.13, 183.29 L135.13, 183.01 L135.13, 182.74 L135.13, 182.47 L135.13, 182.20 L135.13, 181.93 L135.13, 181.65 L135.13, 181.38 L135.13, 181.11 L135.13, 180.84 L135.13, 180.57 L135.13, 180.29 L135.13, 180.02 L135.13, 179.75 L135.13, 179.48 L135.13, 179.21 L135.13, 178.93 L135.13, 178.66 L135.13, 178.39 L135.13, 178.12 L135.13, 177.85 L135.13, 177.57 L135.13, 177.30 L135.13, 177.03 L135.13, 176.76 L135.13, 176.49 L135.13, 176.21 L135.13, 175.94 L135.13, 175.67 L135.13, 175.40 L135.13, 175.12 L135.13, 174.85 L135.13, 174.58 L135.13, 174.31 L135.13, 174.04 L135.13, 173.76 L135.13, 173.49 L135.13, 173.22 L135.13, 172.95 L135.13, 172.68 L135.13, 172.40 L135.13, 172.13 L135.13, 171.86 L135.13, 171.59 L135.13, 171.32 L135.13, 171.04 L135.13, 170.77 L135.13, 170.50 L135.13, 170.23 L135.13, 169.96 L135.13, 169.68 L135.13, 169.41 L135.13, 169.14 L135.13, 168.87 L135.13, 168.59 L135.13, 168.32 L135.13, 168.05 L135.13, 167.78 L135.13, 167.51 L135.13, 167.23 L135.13, 166.96 L135.13, 166.69 L135.13, 166.42 L135.13, 166.15 L135.13, 165.87 L135.13, 165.60 L135.13, 165.33 L135.13, 165.06 L135.13, 164.79 L135.13, 164.51 L135.13, 164.24 L135.13, 163.97 L135.13, 163.70 L135.13, 163.43 L135.13, 163.15 L135.13, 162.88 L135.13, 162.61 L135.13, 162.34 L135.13, 162.07 L135.13, 161.79 L135.13, 161.52 L135.13, 161.25 L135.13, 160.98 L135.13, 160.70 L135.13, 160.43 L135.13, 160.16 L135.13, 159.89 L135.13, 159.62 L135.13, 159.34 L135.13, 159.07 L135.13, 158.80 L135.13, 158.53 L135.13, 158.26 L135.13, 157.98 L135.13, 157.71 L135.13, 157.44 L135.13, 157.17 L135.13, 156.90 L135.13, 156.62 L135.13, 156.35 L135.13, 156.08 L135.13, 155.81 L135.13, 155.54 L135.13, 155.26 L135.13, 154.99 L135.13, 154.72 L135.13, 154.45 L135.13, 154.17 L135.13, 153.90 L135.13, 153.63 L135.13, 153.36 L135.13, 153.09 L135.13, 152.81 L135.13, 152.54 L135.13, 152.27 L135.13, 152.00 L135.13, 151.73 L135.13, 151.45 L135.13, 151.18 L135.13, 150.91 L135.13, 150.64 L135.13, 150.37 L135.13, 150.09 L135.13, 149.82 L135.13, 149.55 L135.13, 149.28 L135.13, 149.01 L135.13, 148.73 L135.13, 148.46 L135.13, 148.19 L135.13, 147.92 L135.13, 147.65 L135.13, 147.37 L135.13, 147.10 L135.13, 146.83 L135.13, 146.56 L135.13, 146.28 L135.13, 146.01 L135.13, 145.74 L135.13, 145.47 L135.13, 145.20 L135.13, 144.92 L135.13, 144.65 L135.13, 144.38 L135.13, 144.11 L135.13, 143.84 L135.13, 143.56 L135.13, 143.29 L135.13, 143.02 L135.13, 142.75 L135.13, 142.48 L135.13, 142.20 L135.13, 141.93 L135.13, 141.66 L135.13, 141.39 L135.13, 141.12 L135.13, 140.84 L135.13, 140.57 L135.13, 140.30 L135.13, 140.03 L135.13, 139.75 L135.13, 139.48 L135.13, 139.21 L135.13, 138.94 L135.13, 138.67 L135.13, 138.39 L135.13, 138.12 L135.13, 137.85 L135.13, 137.58 L135.13, 137.31 L135.13, 137.03 L135.13, 136.76 L135.13, 136.49 L135.13, 136.22 L135.13, 135.95 L135.13, 135.67 L135.13, 135.40 L135.13, 135.13 L135.13, 134.86 L135.13, 134.59 L135.13, 134.31 L135.13, 134.04 L135.13, 133.77 L135.13, 133.50 L135.13, 133.23 L135.13, 132.95 L135.13, 132.68 L135.13, 132.41 L135.13, 132.14 L135.13, 131.86 L135.13, 131.59 L135.13, 131.32 L135.13, 131.05 L135.13, 130.78 L135.13, 130.50 L135.13, 130.23 L135.13, 129.96 L135.13, 129.69 L135.13, 129.42 L135.13, 129.14 L135.13, 128.87 L135.13, 128.60 L135.13, 128.33 L135.13, 128.06 L135.13, 127.78 L135.13, 127.51 L135.13, 127.24 L135.13, 126.97 L135.13, 126.70 L135.13, 126.42 L135.13, 126.15 L135.13, 125.88 L135.13, 125.61 L135.13, 125.33 L135.13, 125.06 L135.13, 124.79 L135.13, 124.52 L135.13, 124.25 L135.13, 123.97 L135.13, 123.70 L135.13, 123.43 L135.13, 123.16 L135.13, 122.89 L135.13, 122.61 L135.13, 122.34 L135.13, 122.07 L135.13, 121.80 L135.13, 121.53 L135.13, 121.25 L135.13, 120.98 L135.13, 120.71 L135.13, 120.44 L135.13, 120.17 L135.13, 119.89 L135.13, 119.62 L135.13, 119.35 L135.13, 119.08 L135.13, 118.81 L135.13, 118.53 L135.13, 118.26 L135.13, 117.99 L135.13, 117.72 L135.13, 117.44 L135.13, 117.17 L135.13, 116.90 L135.13, 116.63 L135.13, 116.36 L135.13, 116.08 L135.13, 115.81 L135.13, 115.54 L135.13, 115.27 L135.13, 115.00 L135.13, 114.72 L135.13, 114.45 L135.13, 114.18 L135.13, 113.91 L135.13, 113.64 L135.13, 113.36 L135.13, 113.09 L135.13, 112.82 L135.13, 112.55 L135.13, 112.28 L135.13, 112.00 L135.13, 111.73 L135.13, 111.46 L135.13, 111.19 L135.13, 110.91 L135.13, 110.64 L135.13, 110.37 L135.13, 110.10 L135.13, 109.83 L135.13, 109.55 L135.13, 109.28 L135.13, 109.01 L135.13, 108.74 L135.13, 108.47 L135.13, 108.19 L135.13, 107.92 L135.13, 107.65 L135.13, 107.38 L135.13, 107.11 L135.13, 106.83 L135.13, 106.56 L135.13, 106.29 L135.13, 106.02 L135.13, 105.75 L135.13, 105.47 L135.13, 105.20 L135.13, 104.93 L135.13, 104.66 L135.13, 104.39 L135.13, 104.11 L135.13, 103.84 L135.13, 103.57 L135.13, 103.30 L135.13, 103.02 L135.13, 102.75 L135.13, 102.48 L135.13, 102.21 L135.13, 101.94 L135.13, 101.66 L135.13, 101.39 L135.13, 101.12 L135.13, 100.85 L135.13, 100.58 L135.13, 100.30 L135.13, 100.03 L135.13, 99.76 L135.13, 99.49 L135.13, 99.22 L135.13, 98.94 L135.13, 98.67 L135.13, 98.40 L135.13, 98.13 L135.13, 97.86 L135.13, 97.58 L135.13, 97.31 L135.13, 97.04 L135.13, 96.77 L135.13, 96.49 L135.13, 96.22 L135.13, 95.95 L135.13, 95.68 L135.13, 95.41 L135.13, 95.13 L135.13, 94.86 L135.13, 94.59 L135.13, 94.32 L135.13, 94.05 L135.13, 93.77 L135.13, 93.50 L135.13, 93.23 L135.13, 92.96 L135.13, 92.69 L135.13, 92.41 L135.13, 92.14 L135.13, 91.87 L135.13, 91.60 L135.13, 91.33 L135.13, 91.05 L135.13, 90.78 L135.13, 90.51 L135.13, 90.24 L135.13, 89.97 L135.13, 89.69 L135.13, 89.42 L135.13, 89.15 L135.13, 88.88 L135.13, 88.60 L135.13, 88.33 L135.13, 88.06 L135.13, 87.79 L135.13, 87.52 L135.13, 87.24 L135.13, 86.97 L135.13, 86.70 L135.13, 86.43 L135.13, 86.16 L135.13, 85.88 L135.13, 85.61 L135.13, 85.34 L135.13, 85.07" style="stroke-width: 2; stroke: rgb(0, 0, 0); stroke-opacity: 1; stroke-dasharray: 7.5, 6;"/><path d=" M60.04,85.07 L60.17,85.07 L60.31,85.07 L60.44,85.07 L60.58,85.07 L60.71,85.07 L60.85,85.07 L60.98,85.07 L61.12,85.07 L61.25,85.07 L61.39,85.07 L61.53,85.07 L61.66,85.07 L61.80,85.07 L61.93,85.07 L62.07,85.07 L62.20,85.07 L62.34,85.07 L62.47,85.07 L62.61,85.07 L62.74,85.07 L62.88,85.07 L63.02,85.07 L63.15,85.07 L63.29,85.07 L63.42,85.07 L63.56,85.07 L63.69,85.07 L63.83,85.07 L63.96,85.07 L64.10,85.07 L64.23,85.07 L64.37,85.07 L64.51,85.07 L64.64,85.07 L64.78,85.07 L64.91,85.07 L65.05,85.07 L65.18,85.07 L65.32,85.07 L65.45,85.07 L65.59,85.07 L65.72,85.07 L65.86,85.07 L66.00,85.07 L66.13,85.07 L66.27,85.07 L66.40,85.07 L66.54,85.07 L66.67,85.07 L66.81,85.07 L66.94,85.07 L67.08,85.07 L67.21,85.07 L67.35,85.07 L67.49,85.07 L67.62,85.07 L67.76,85.07 L67.89,85.07 L68.03,85.07 L68.16,85.07 L68.30,85.07 L68.43,85.07 L68.57,85.07 L68.70,85.07 L68.84,85.07 L68.98,85.07 L69.11,85.07 L69.25,85.07 L69.38,85.07 L69.52,85.07 L69.65,85.07 L69.79,85.07 L69.92,85.07 L70.06,85.07 L70.19,85.07 L70.33,85.07 L70.47,85.07 L70.60,85.07 L70.74,85.07 L70.87,85.07 L71.01,85.07 L71.14,85.07 L71.28,85.07 L71.41,85.07 L71.55,85.07 L71.68,85.07 L71.82,85.07 L71.96,85.07 L72.09,85.07 L72.23,85.07 L72.36,85.07 L72.50,85.07 L72.63,85.07 L72.77,85.07 L72.90,85.07 L73.04,85.07 L73.17,85.07 L73.31,85.07 L73.45,85.07 L73.58,85.07 L73.72,85.07 L73.85,85.07 L73.99,85.07 L74.12,85.07 L74.26,85.07 L74.39,85.07 L74.53,85.07 L74.66,85.07 L74.80,85.07 L74.94,85.07 L75.07,85.07 L75.21,85.07 L75.34,85.07 L75.48,85.07 L75.61,85.07 L75.75,85.07 L75.88,85.07 L76.02,85.07 L76.15,85.07 L76.29,85.07 L76.43,85.07 L76.56,85.07 L76.70,85.07 L76.83,85.07 L76.97,85.07 L77.10,85.07 L77.24,85.07 L77.37,85.07 L77.51,85.07 L77.64,85.07 L77.78,85.07 L77.92,85.07 L78.05,85.07 L78.19,85.07 L78.32,85.07 L78.46,85.07 L78.59,85.07 L78.73,85.07 L78.86,85.07 L79.00,85.07 L79.13,85.07 L79.27,85.07 L79.41,85.07 L79.54,85.07 L79.68,85.07 L79.81,85.07 L79.95,85.07 L80.08,85.07 L80.22,85.07 L80.35,85.07 L80.49,85.07 L80.62,85.07 L80.76,85.07 L80.90,85.07 L81.03,85.07 L81.17,85.07 L81.30,85.07 L81.44,85.07 L81.57,85.07 L81.71,85.07 L81.84,85.07 L81.98,85.07 L82.11,85.07 L82.25,85.07 L82.39,85.07 L82.52,85.07 L82.66,85.07 L82.79,85.07 L82.93,85.07 L83.06,85.07 L83.20,85.07 L83.33,85.07 L83.47,85.07 L83.60,85.07 L83.74,85.07 L83.88,85.07 L84.01,85.07 L84.15,85.07 L84.28,85.07 L84.42,85.07 L84.55,85.07 L84.69,85.07 L84.82,85.07 L84.96,85.07 L85.09,85.07 L85.23,85.07 L85.37,85.07 L85.50,85.07 L85.64,85.07 L85.77,85.07 L85.91,85.07 L86.04,85.07 L86.18,85.07 L86.31,85.07 L86.45,85.07 L86.58,85.07 L86.72,85.07 L86.86,85.07 L86.99,85.07 L87.13,85.07 L87.26,85.07 L87.40,85.07 L87.53,85.07 L87.67,85.07 L87.80,85.07 L87.94,85.07 L88.07,85.07 L88.21,85.07 L88.35,85.07 L88.48,85.07 L88.62,85.07 L88.75,85.07 L88.89,85.07 L89.02,85.07 L89.16,85.07 L89.29,85.07 L89.43,85.07 L89.56,85.07 L89.70,85.07 L89.84,85.07 L89.97,85.07 L90.11,85.07 L90.24,85.07 L90.38,85.07 L90.51,85.07 L90.65,85.07 L90.78,85.07 L90.92,85.07 L91.05,85.07 L91.19,85.07 L91.33,85.07 L91.46,85.07 L91.60,85.07 L91.73,85.07 L91.87,85.07 L92.00,85.07 L92.14,85.07 L92.27,85.07 L92.41,85.07 L92.54,85.07 L92.68,85.07 L92.82,85.07 L92.95,85.07 L93.09,85.07 L93.22,85.07 L93.36,85.07 L93.49,85.07 L93.63,85.07 L93.76,85.07 L93.90,85.07 L94.03,85.07 L94.17,85.07 L94.31,85.07 L94.44,85.07 L94.58,85.07 L94.71,85.07 L94.85,85.07 L94.98,85.07 L95.12,85.07 L95.25,85.07 L95.39,85.07 L95.52,85.07 L95.66,85.07 L95.80,85.07 L95.93,85.07 L96.07,85.07 L96.20,85.07 L96.34,85.07 L96.47,85.07 L96.61,85.07 L96.74,85.07 L96.88,85.07 L97.01,85.07 L97.15,85.07 L97.29,85.07 L97.42,85.07 L97.56,85.07 L97.69,85.07 L97.83,85.07 L97.96,85.07 L98.10,85.07 L98.23,85.07 L98.37,85.07 L98.50,85.07 L98.64,85.07 L98.78,85.07 L98.91,85.07 L99.05,85.07 L99.18,85.07 L99.32,85.07 L99.45,85.07 L99.59,85.07 L99.72,85.07 L99.86,85.07 L99.99,85.07 L100.13,85.07 L100.27,85.07 L100.40,85.07 L100.54,85.07 L100.67,85.07 L100.81,85.07 L100.94,85.07 L101.08,85.07 L101.21,85.07 L101.35,85.07 L101.48,85.07 L101.62,85.07 L101.76,85.07 L101.89,85.07 L102.03,85.07 L102.16,85.07 L102.30,85.07 L102.43,85.07 L102.57,85.07 L102.70,85.07 L102.84,85.07 L102.97,85.07 L103.11,85.07 L103.25,85.07 L103.38,85.07 L103.52,85.07 L103.65,85.07 L103.79,85.07 L103.92,85.07 L104.06,85.07 L104.19,85.07 L104.33,85.07 L104.46,85.07 L104.60,85.07 L104.74,85.07 L104.87,85.07 L105.01,85.07 L105.14,85.07 L105.28,85.07 L105.41,85.07 L105.55,85.07 L105.68,85.07 L105.82,85.07 L105.95,85.07 L106.09,85.07 L106.23,85.07 L106.36,85.07 L106.50,85.07 L106.63,85.07 L106.77,85.07 L106.90,85.07 L107.04,85.07 L107.17,85.07 L107.31,85.07 L107.44,85.07 L107.58,85.07 L107.72,85.07 L107.85,85.07 L107.99,85.07 L108.12,85.07 L108.26,85.07 L108.39,85.07 L108.53,85.07 L108.66,85.07 L108.80,85.07 L108.93,85.07 L109.07,85.07 L109.21,85.07 L109.34,85.07 L109.48,85.07 L109.61,85.07 L109.75,85.07 L109.88,85.07 L110.02,85.07 L110.15,85.07 L110.29,85.07 L110.42,85.07 L110.56,85.07 L110.70,85.07 L110.83,85.07 L110.97,85.07 L111.10,85.07 L111.24,85.07 L111.37,85.07 L111.51,85.07 L111.64,85.07 L111.78,85.07 L111.91,85.07 L112.05,85.07 L112.19,85.07 L112.32,85.07 L112.46,85.07 L112.59,85.07 L112.73,85.07 L112.86,85.07 L113.00,85.07 L113.13,85.07 L113.27,85.07 L113.40,85.07 L113.54,85.07 L113.68,85.07 L113.81,85.07 L113.95,85.07 L114.08,85.07 L114.22,85.07 L114.35,85.07 L114.49,85.07 L114.62,85.07 L114.76,85.07 L114.89,85.07 L115.03,85.07 L115.17,85.07 L115.30,85.07 L115.44,85.07 L115.57,85.07 L115.71,85.07 L115.84,85.07 L115.98,85.07 L116.11,85.07 L116.25,85.07 L116.38,85.07 L116.52,85.07 L116.66,85.07 L116.79,85.07 L116.93,85.07 L117.06,85.07 L117.20,85.07 L117.33,85.07 L117.47,85.07 L117.60,85.07 L117.74,85.07 L117.87,85.07 L118.01,85.07 L118.15,85.07 L118.28,85.07 L118.42,85.07 L118.55,85.07 L118.69,85.07 L118.82,85.07 L118.96,85.07 L119.09,85.07 L119.23,85.07 L119.36,85.07 L119.50,85.07 L119.64,85.07 L119.77,85.07 L119.91,85.07 L120.04,85.07 L120.18,85.07 L120.31,85.07 L120.45,85.07 L120.58,85.07 L120.72,85.07 L120.85,85.07 L120.99,85.07 L121.13,85.07 L121.26,85.07 L121.40,85.07 L121.53,85.07 L121.67,85.07 L121.80,85.07 L121.94,85.07 L122.07,85.07 L122.21,85.07 L122.34,85.07 L122.48,85.07 L122.62,85.07 L122.75,85.07 L122.89,85.07 L123.02,85.07 L123.16,85.07 L123.29,85.07 L123.43,85.07 L123.56,85.07 L123.70,85.07 L123.83,85.07 L123.97,85.07 L124.11,85.07 L124.24,85.07 L124.38,85.07 L124.51,85.07 L124.65,85.07 L124.78,85.07 L124.92,85.07 L125.05,85.07 L125.19,85.07 L125.32,85.07 L125.46,85.07 L125.60,85.07 L125.73,85.07 L125.87,85.07 L126.00,85.07 L126.14,85.07 L126.27,85.07 L126.41,85.07 L126.54,85.07 L126.68,85.07 L126.81,85.07 L126.95,85.07 L127.09,85.07 L127.22,85.07 L127.36,85.07 L127.49,85.07 L127.63,85.07 L127.76,85.07 L127.90,85.07 L128.03,85.07 L128.17,85.07 L128.30,85.07 L128.44,85.07 L128.58,85.07 L128.71,85.07 L128.85,85.07 L128.98,85.07 L129.12,85.07 L129.25,85.07 L129.39,85.07 L129.52,85.07 L129.66,85.07 L129.79,85.07 L129.93,85.07 L130.07,85.07 L130.20,85.07 L130.34,85.07 L130.47,85.07 L130.61,85.07 L130.74,85.07 L130.88,85.07 L131.01,85.07 L131.15,85.07 L131.28,85.07 L131.42,85.07 L131.55,85.07 L131.69,85.07 L131.83,85.07 L131.96,85.07 L132.10,85.07 L132.23,85.07 L132.37,85.07 L132.50,85.07 L132.64,85.07 L132.77,85.07 L132.91,85.07 L133.04,85.07 L133.18,85.07 L133.32,85.07 L133.45,85.07 L133.59,85.07 L133.72,85.07 L133.86,85.07 L133.99,85.07 L134.13,85.07 L134.26,85.07 L134.40,85.07 L134.53,85.07 L134.67,85.07 L134.81,85.07 L134.94,85.07 L135.08,85.07 L135.13,85.07" style="stroke-width: 2; stroke: rgb(0, 0, 0); stroke-opacity: 1; stroke-dasharray: 7.5, 6;"/></g></g><g class="test-xtl" style="font-family: &quot;Open Sans&quot;, verdana, arial, sans-serif;"/><g class="test-ytl" style="font-family: &quot;Open Sans&quot;, verdana, arial, sans-serif;"/><rect class="real" x="1" y="1" width="275.691349029541" height="240" style="fill: transparent; stroke: none;"/></g></g></g><g class="arrow-line"><path class="connection real" stroke-dasharray="" d="  M309.94,187.2 C313.16,107.2 411.16,74.2 439.94,74.2" style="stroke: rgb(0, 0, 0); stroke-width: 2; fill: none; fill-opacity: 1;"/></g><g class="arrow-line"><path class="connection real" stroke-dasharray="20 8" d="  M439.94,74.2 L379.31,126.91 L309.94,187.2" style="stroke: rgb(0, 0, 0); stroke-width: 2; fill: none; fill-opacity: 1;"/></g><g class="arrow-line"><path class="connection real" stroke-dasharray="" d="  M421.94,47.2 L291.94,160.2" style="stroke: rgb(0, 0, 0); stroke-width: 2; fill: none; fill-opacity: 1;"/></g><g/></g><g/><g/><g/></svg>
        <svg xmlns="http://www.w3.org/2000/svg" xmlns:xlink="http://www.w3.org/1999/xlink" width="659.990966796875" height="276.5405578613281" style="width:659.990966796875px;height:276.5405578613281px;font-family:Asana-Math, Asana;background:transparent;"><g><g><g><text x="248.15509033203125" y="65.24113464355469" style="white-space:pre;stroke:none;fill:rgb(0,0,0);fill-opacity:1;font-size:12px;font-family:Arial, Helvetica, sans-serif;font-weight:400;font-style:normal;dominant-baseline:text-before-edge;text-decoration:rgb(0, 0, 0);">f(b)</text></g></g></g><g><g><g><text x="248.15509033203125" y="106.23712158203125" style="white-space:pre;stroke:none;fill:rgb(0,0,0);fill-opacity:1;font-size:12px;font-family:Arial, Helvetica, sans-serif;font-weight:400;font-style:normal;dominant-baseline:text-before-edge;text-decoration:rgb(0, 0, 0);">f(c)</text></g></g></g><g><g><g><text x="248.15509033203125" y="179.23785400390625" style="white-space:pre;stroke:none;fill:rgb(0,0,0);fill-opacity:1;font-size:12px;font-family:Arial, Helvetica, sans-serif;font-weight:400;font-style:normal;dominant-baseline:text-before-edge;text-decoration:rgb(0, 0, 0);">f(a)</text></g></g></g><g><g><g><text x="305.1534423828125" y="246.24124145507812" style="white-space:pre;stroke:none;fill:rgb(0,0,0);fill-opacity:1;font-size:12px;font-family:Arial, Helvetica, sans-serif;font-weight:400;font-style:normal;dominant-baseline:text-before-edge;text-decoration:rgb(0, 0, 0);">a</text></g></g></g><g><g><g><text x="343.1554870605469" y="247.23605346679688" style="white-space:pre;stroke:none;fill:rgb(0,0,0);fill-opacity:1;font-size:12px;font-family:Arial, Helvetica, sans-serif;font-weight:400;font-style:normal;dominant-baseline:text-before-edge;text-decoration:rgb(0, 0, 0);">c</text></g></g></g><g><g><g><text x="438.15594482421875" y="248.2403564453125" style="white-space:pre;stroke:none;fill:rgb(0,0,0);fill-opacity:1;font-size:12px;font-family:Arial, Helvetica, sans-serif;font-weight:400;font-style:normal;dominant-baseline:text-before-edge;text-decoration:rgb(0, 0, 0);">b</text></g></g></g><g transform="matrix(0.7345594108528793,-0.6785443772720181,0.6785443772720181,0.7345594108528793,4.433651861637031,294.6011597454908)"><g><g><text x="360.50323486328125" y="134.77420043945312" style="white-space:pre;stroke:none;fill:rgb(0,0,0);fill-opacity:1;font-size:12px;font-family:Arial, Helvetica, sans-serif;font-weight:400;font-style:normal;dominant-baseline:text-before-edge;text-decoration:rgb(0, 0, 0);">y = r(x)</text></g></g></g><g><g><g><text x="483.3680419921875" y="221.23812866210938" style="white-space:pre;stroke:none;fill:rgb(0,0,0);fill-opacity:1;font-size:12px;font-family:Arial, Helvetica, sans-serif;font-weight:700;font-style:normal;dominant-baseline:text-before-edge;text-decoration:rgb(0, 0, 0);">x</text></g></g></g><g><g><g><text x="253.36602783203125" y="24.235671997070312" style="white-space:pre;stroke:none;fill:rgb(0,0,0);fill-opacity:1;font-size:12px;font-family:Arial, Helvetica, sans-serif;font-weight:700;font-style:normal;dominant-baseline:text-before-edge;text-decoration:rgb(0, 0, 0);">y</text></g></g></g></svg>
</svg>
