<?xml version="1.0" encoding="UTF-8" standalone="no"?>
<!-- Created with Inkscape (http://www.inkscape.org/) -->

<svg
   width="300"
   height="300"
   viewBox="0 0 79.374999 79.375001"
   version="1.1"
   id="svg256"
   xml:space="preserve"
   inkscape:version="1.2.2 (b0a8486541, 2022-12-01)"
   sodipodi:docname="grafo2_center_invert_B.svg"
   xmlns:inkscape="http://www.inkscape.org/namespaces/inkscape"
   xmlns:sodipodi="http://sodipodi.sourceforge.net/DTD/sodipodi-0.dtd"
   xmlns="http://www.w3.org/2000/svg"
   xmlns:svg="http://www.w3.org/2000/svg"><sodipodi:namedview
     id="namedview258"
     pagecolor="#ffffff"
     bordercolor="#000000"
     borderopacity="0.25"
     inkscape:showpageshadow="2"
     inkscape:pageopacity="0.0"
     inkscape:pagecheckerboard="0"
     inkscape:deskcolor="#d1d1d1"
     inkscape:document-units="mm"
     showgrid="false"
     inkscape:zoom="2"
     inkscape:cx="106.25"
     inkscape:cy="161.25"
     inkscape:window-width="1877"
     inkscape:window-height="984"
     inkscape:window-x="30"
     inkscape:window-y="83"
     inkscape:window-maximized="1"
     inkscape:current-layer="layer1" /><defs
     id="defs253" /><g
     inkscape:label="Layer 1"
     inkscape:groupmode="layer"
     id="layer1"><path
       style="color:#000000;fill:#000000;-inkscape-stroke:none"
       d="m 17.787109,19.544922 c -2.331373,-0.02408 -4.250224,1.850248 -4.27539,4.18164 -0.02892,2.32798 1.845679,4.246473 4.177734,4.275391 h 0.002 c 2.327731,0.0241 4.24453,-1.849584 4.273438,-4.181641 v -0.002 c 0.0241,-2.327729 -1.849991,-4.244523 -4.177735,-4.273437 z m -0.0059,0.457031 c 2.080764,0.02585 3.748102,1.731724 3.726562,3.8125 -0.02585,2.085581 -1.731722,3.75201 -3.8125,3.730469 -2.08558,-0.02586 -3.752407,-1.731974 -3.726562,-3.8125 0.02154,-2.085321 1.726901,-3.752014 3.8125,-3.730469 z"
       id="path260" /><path
       style="color:#000000;fill:#000000;-inkscape-stroke:none"
       d="m 25.839844,23.730469 -0.002,0.457031 29.322265,0.113281 0.002,-0.457031 z"
       id="path264" /><path
       style="color:#000000;fill:#000000;-inkscape-stroke:none"
       d="m 17.787109,65.410156 c -2.331373,-0.02408 -4.250225,1.850248 -4.27539,4.181641 -0.02892,2.32798 1.845679,4.246472 4.177734,4.27539 h 0.002 c 2.32773,0.0241 4.24453,-1.849583 4.273438,-4.18164 v -0.002 c 0.0241,-2.327729 -1.849992,-4.244513 -4.177735,-4.273438 z m -0.0059,0.457031 c 2.080765,0.02586 3.748102,1.731724 3.726562,3.8125 -0.02585,2.085581 -1.731722,3.752009 -3.8125,3.730469 -2.08558,-0.02586 -3.752407,-1.731973 -3.726562,-3.8125 0.02154,-2.085319 1.726901,-3.752014 3.8125,-3.730469 z"
       id="path268" /><path
       style="color:#000000;fill:#000000;-inkscape-stroke:none"
       d="m 63.195312,65.181641 c -2.331372,-0.02408 -4.24827,1.850248 -4.273437,4.18164 -0.02892,2.327982 1.843726,4.246473 4.175781,4.275391 h 0.002 c 2.327731,0.0241 4.24452,-1.849586 4.273438,-4.181641 0.0241,-2.327733 -1.84999,-4.246476 -4.177735,-4.27539 z m -0.0059,0.457031 c 2.080765,0.02585 3.748103,1.731719 3.726563,3.8125 -0.02586,2.085581 -1.731723,3.752009 -3.8125,3.730469 -2.085581,-0.02586 -3.752408,-1.731972 -3.726563,-3.8125 0.02154,-2.085321 1.726901,-3.752015 3.8125,-3.730469 z"
       id="path272" /><path
       style="color:#000000;fill:#000000;-inkscape-stroke:none"
       d="m 63.195312,20.001953 c -2.332036,-0.02409 -4.249341,1.849324 -4.273437,4.181641 -0.02892,2.327979 1.843725,4.246483 4.175781,4.27539 h 0.002 c 2.327731,0.0241 4.24452,-1.851539 4.273438,-4.183593 0.0241,-2.327731 -1.84999,-4.244524 -4.177735,-4.273438 z m -0.0059,0.457031 c 2.080765,0.02585 3.748103,1.731723 3.726563,3.8125 -0.02692,2.084651 -1.732386,3.752003 -3.8125,3.730469 -2.08558,-0.02585 -3.752408,-1.731974 -3.726563,-3.8125 0.02154,-2.08532 1.726901,-3.752015 3.8125,-3.730469 z"
       id="path276" /><path
       style="color:#000000;fill:#000000;-inkscape-stroke:none"
       d="m 62.691406,30.689453 v 30.462891 h 0.455078 V 30.689453 Z"
       id="path280" /><path
       style="color:#000000;fill:#000000;-inkscape-stroke:none"
       d="m 56.871094,69.595703 -31.146485,0.113281 0.002,0.457032 31.146485,-0.115235 z"
       id="path284" /><path
       style="color:#000000;fill:#000000;-inkscape-stroke:none"
       d="M 55.341797,31.783203 22.939453,64.185547 23.261719,64.507812 55.664062,32.105469 Z"
       id="path288" /><path
       style="color:#000000;fill:#000000;-inkscape-stroke:none"
       d="m 24.347656,31.271484 -0.322265,0.324219 9.751953,9.751953 22.248047,22.248047 0.324218,-0.322266 -22.248047,-22.248046 z"
       id="path292" /><path
       style="color:#000000;fill:#000000;-inkscape-stroke:none"
       d="m 40.925781,14.919922 c -5.481625,0.02891 -11.051237,1.289672 -16.783203,4.041015 l 0.197266,0.41211 c 11.354433,-5.450128 21.994997,-4.997452 32.675781,-0.679688 l 0.169922,-0.423828 C 51.801308,16.092924 46.407407,14.891008 40.925781,14.919922 Z"
       id="path296" /><path
       class="real"
       d="m 11.340179,23.086773 c -0.579588,0.100404 -1.191119,0.104964 -1.8072161,0.0045 -2.8888074,-0.479162 -4.8557522,-3.15804 -4.3856943,-5.987521 0.4654955,-2.829479 3.1854471,-4.732532 6.0788174,-4.25791 2.008019,0.333148 3.568796,1.725069 4.175766,3.495776 l -5.020046,1.629233 z"
       style="fill:none;fill-opacity:1;stroke:none;stroke-width:0.456368px"
       id="path3311" /><path
       style="color:#000000;fill:#000000;-inkscape-stroke:none"
       d="m 11.263672,12.621094 c -3.0120583,-0.494092 -5.8558492,1.491516 -6.341797,4.445312 -0.4907384,2.953966 1.5664691,5.751109 4.5742188,6.25 0.6408502,0.104501 1.2777712,0.100907 1.8828122,-0.0039 l -0.07813,-0.451172 c -0.554133,0.09599 -1.139126,0.100334 -1.7304685,0.0039 -2.7698593,-0.459432 -4.6466421,-3.019618 -4.1972656,-5.724609 0.4450423,-2.705156 3.0417296,-4.525464 5.8164061,-4.070312 1.925612,0.319475 3.416138,1.653804 3.996094,3.345703 l 0.431641,-0.148438 c -0.633984,-1.849512 -2.263094,-3.299665 -4.353516,-3.646484 z"
       id="path302" /><path
       d="m 72.213565,72.281538 -0.97268,-1.484089 -0.97936,1.484089 h -0.648453 l 1.286875,-1.858451 -1.226711,-1.758175 h 0.665165 l 0.902484,1.407209 0.895801,-1.407209 h 0.67185 l -1.226712,1.751489 1.303592,1.865137 z"
       id="path3317"
       style="font-size:15px;font-family:Arial, Helvetica, sans-serif;dominant-baseline:text-before-edge;white-space:pre;fill:#000000;stroke-width:0.456368" /><path
       d="M 9.5688475,70.456068 H 8.8702582 L 8.2385167,67.899026 8.1181866,67.334138 q -0.030074,0.150414 -0.093588,0.434527 -0.063504,0.280775 -0.6818767,2.687403 H 6.6474774 L 5.634688,66.839439 h 0.5949705 l 0.6116839,2.456766 q 0.02341,0.08022 0.1437277,0.661825 l 0.05682,-0.247348 0.7554167,-2.871243 h 0.6451078 l 0.6317404,2.483509 0.1537551,0.635082 0.1036187,-0.464615 0.6852222,-2.653976 h 0.588285 z"
       id="path3320"
       style="font-size:15px;font-family:Arial, Helvetica, sans-serif;dominant-baseline:text-before-edge;white-space:pre;fill:#000000;stroke-width:0.456368" /><path
       d="M 72.726089,27.785682 H 72.014128 L 70.70051,24.169054 h 0.641767 L 72.1378,26.5222 q 0.04344,0.133701 0.230634,0.792181 l 0.11699,-0.391075 0.130361,-0.394421 0.82226,-2.359831 h 0.638427 z"
       id="path3323"
       style="font-size:15px;font-family:Arial, Helvetica, sans-serif;dominant-baseline:text-before-edge;white-space:pre;fill:#000000;stroke-width:0.456368" /><path
       d="m 7.8351839,24.625421 v 2.292984 q 0,0.35765 0.070199,0.55486 0.070189,0.197206 0.2239529,0.284112 0.1537551,0.08691 0.4512428,0.08691 0.4345263,0 0.6852178,-0.297484 0.2506927,-0.297488 0.2506927,-0.825606 v -2.095774 h 0.6016569 v 2.844498 q 0,0.631743 0.02003,0.77213 H 9.5699459 q -0.00315,-0.01671 -0.0067,-0.09025 -0.00315,-0.07354 -0.010038,-0.167126 -0.00325,-0.09693 -0.010038,-0.360992 h -0.010038 q -0.2072374,0.374362 -0.4813267,0.531463 -0.2707449,0.153755 -0.6751915,0.153755 -0.5949715,0 -0.8724017,-0.294143 Q 7.2301218,27.71727 7.2301218,27.035393 v -2.409969 z"
       id="path3326"
       style="font-size:15px;font-family:Arial, Helvetica, sans-serif;dominant-baseline:text-before-edge;white-space:pre;fill:#000000;stroke-width:0.456368" /><path
       d="m 10.533504,7.4777611 q 0,1.891876 -1.3303309,1.891876 -0.4111317,0 -0.6852178,-0.1470718 Q 8.2472112,9.0721514 8.0767398,8.7412401 h -0.0067 q 0,0.1036187 -0.013369,0.3175413 -0.013369,0.2105791 -0.020032,0.244005 H 7.4550447 Q 7.475077,9.1222886 7.475077,8.5574012 V 4.3424614 h 0.6016566 v 1.4138929 q 0,0.2172646 -0.013369,0.5114083 h 0.013369 Q 8.24386,5.9201385 8.5179502,5.7697246 8.7953805,5.6193107 9.203168,5.6193107 q 0.6852215,0 1.006103,0.46127 0.324227,0.46127 0.324227,1.3971804 z m -0.6317411,0.020053 q 0,-0.7587548 -0.2005508,-1.0863243 -0.2005513,-0.3275686 -0.651793,-0.3275686 -0.5080652,0 -0.7420453,0.3476241 -0.230634,0.3476241 -0.230634,1.1030377 0,0.7119596 0.2272939,1.0528985 0.2272939,0.3375968 0.7386992,0.3375968 0.4545829,0 0.6551392,-0.3342537 0.2038908,-0.3375969 0.2038908,-1.0930105 z"
       id="path3329"
       style="font-size:15px;font-family:Arial, Helvetica, sans-serif;dominant-baseline:text-before-edge;white-space:pre;fill:#000000;stroke-width:0.456368" /><path
       d="m 39.886999,11.87966 q -0.544834,0 -0.818924,-0.287459 -0.274085,-0.287457 -0.274085,-0.788839 0,-0.561547 0.367677,-0.8623743 0.371022,-0.3008287 1.193287,-0.3208833 l 0.812235,-0.013368 V 9.409526 q 0,-0.4412142 -0.18718,-0.6317392 -0.187184,-0.190525 -0.58829,-0.190525 -0.404446,0 -0.588286,0.1370447 -0.183838,0.1370436 -0.220607,0.4378721 l -0.628397,-0.05682 q 0.153756,-0.97602 1.450662,-0.97602 0.681877,0 1.026161,0.3141981 0.344279,0.3108562 0.344279,0.9024853 v 1.557621 q 0,0.267403 0.07019,0.404447 0.0702,0.133703 0.267404,0.133703 0.08691,0 0.19721,-0.0234 v 0.374365 q -0.227294,0.05348 -0.464614,0.05348 -0.334253,0 -0.488013,-0.173812 -0.150413,-0.177155 -0.170466,-0.551519 h -0.02004 q -0.230636,0.414475 -0.538149,0.588287 -0.30417,0.17047 -0.742041,0.17047 z m 0.137043,-0.451243 q 0.330912,0 0.588286,-0.150415 0.257376,-0.150413 0.404446,-0.411132 0.150415,-0.26406 0.150415,-0.54149 v -0.297487 l -0.65848,0.01337 q -0.4245,0.0067 -0.645108,0.0869 -0.217268,0.08022 -0.334253,0.247347 -0.11699,0.167127 -0.11699,0.437873 0,0.294142 0.1571,0.454584 0.160441,0.160443 0.454584,0.160443 z"
       id="path3332"
       style="font-size:15px;font-family:Arial, Helvetica, sans-serif;dominant-baseline:text-before-edge;white-space:pre;fill:#000000;stroke-width:0.456368" /><path
       d="m 31.435949,49.463592 q 0,0.721988 0.227294,1.069612 0.22729,0.347624 0.685218,0.347624 0.320886,0 0.534808,-0.173812 0.217263,-0.173812 0.2674,-0.534804 l 0.608342,0.04011 q -0.0702,0.521437 -0.444556,0.832291 -0.374364,0.310855 -0.949282,0.310855 -0.758752,0 -1.159859,-0.477981 -0.39776,-0.481327 -0.39776,-1.400525 0,-0.912511 0.401101,-1.390497 0.401107,-0.481322 1.149832,-0.481322 0.554861,0 0.919198,0.287457 0.367681,0.287456 0.461275,0.792181 l -0.61837,0.0468 q -0.0468,-0.300827 -0.237321,-0.477981 -0.190524,-0.177157 -0.541494,-0.177157 -0.47798,0 -0.691904,0.31754 -0.213922,0.317541 -0.213922,1.069612 z"
       id="path3335"
       style="font-size:15px;font-family:Arial, Helvetica, sans-serif;dominant-baseline:text-before-edge;white-space:pre;fill:#000000;stroke-width:0.456368" /><path
       d="m 68.173106,46.82789 q -0.167128,0.347624 -0.444557,0.498039 -0.274087,0.150414 -0.681878,0.150414 -0.685218,0 -1.009445,-0.461269 -0.320885,-0.461269 -0.320885,-1.397179 0,-1.891876 1.33033,-1.891876 0.411132,0 0.685222,0.150413 0.274085,0.150414 0.441213,0.477981 h 0.0067 l -0.0067,-0.404446 V 42.44917 h 0.601658 v 4.214939 q 0,0.564888 0.02004,0.745386 h -0.574917 q -0.01009,-0.05348 -0.02341,-0.247352 -0.01009,-0.193865 -0.01009,-0.334253 z m -1.825025,-1.230053 q 0,0.758758 0.200551,1.086325 0.200555,0.327567 0.651798,0.327567 0.511405,0 0.74204,-0.354306 0.230636,-0.35431 0.230636,-1.099696 0,-0.718646 -0.230636,-1.052899 -0.230635,-0.334253 -0.735358,-0.334253 -0.454584,0 -0.65848,0.337594 -0.200551,0.334256 -0.200551,1.089668 z"
       id="path3338"
       style="font-size:15px;font-family:Arial, Helvetica, sans-serif;dominant-baseline:text-before-edge;white-space:pre;fill:#000000;stroke-width:0.456368" /><path
       d="m 39.197542,27.245301 q 0,0.621714 0.257377,0.959312 0.257374,0.337593 0.752071,0.337593 0.391076,0 0.625056,-0.1571 0.23732,-0.1571 0.32088,-0.397761 l 0.528123,0.150416 q -0.324227,0.855688 -1.474059,0.855688 -0.802208,0 -1.223371,-0.477981 -0.417813,-0.477985 -0.417813,-1.420581 0,-0.895801 0.417813,-1.373782 0.421163,-0.477981 1.199974,-0.477981 1.594388,0 1.594388,1.921957 v 0.08022 z m 1.95873,-0.461269 q -0.05014,-0.571574 -0.290802,-0.832292 -0.240662,-0.264059 -0.691904,-0.264059 -0.437875,0 -0.695248,0.294143 -0.254033,0.290802 -0.27409,0.802208 z"
       id="path3341"
       style="font-size:15px;font-family:Arial, Helvetica, sans-serif;dominant-baseline:text-before-edge;white-space:pre;fill:#000000;stroke-width:0.456368" /><path
       d="m 40.394393,72.069174 v 3.178755 h -0.601657 v -3.178755 h -0.508064 v -0.437873 h 0.508064 v -0.407787 q 0,-0.494698 0.217268,-0.711961 0.217263,-0.217267 0.665166,-0.217267 0.250687,0 0.424499,0.04011 v 0.457928 q -0.150415,-0.02675 -0.2674,-0.02675 -0.230639,0 -0.334257,0.116989 -0.103619,0.116986 -0.103619,0.424501 v 0.324225 h 0.705276 v 0.437873 z"
       id="path3344"
       style="font-size:15px;font-family:Arial, Helvetica, sans-serif;dominant-baseline:text-before-edge;white-space:pre;fill:#000000;stroke-width:0.456368" /><path
       d="m 25.046577,40.159085 q -0.591626,0 -0.942595,-0.233981 -0.350965,-0.230634 -0.451243,-0.658479 l 0.605002,-0.0869 q 0.06017,0.250692 0.264059,0.384394 0.207236,0.137043 0.541488,0.137043 0.899146,0 0.899146,-1.052901 v -0.581598 h -0.0067 q -0.170473,0.347623 -0.467955,0.524776 -0.297488,0.173812 -0.695249,0.173812 -0.665166,0 -0.979361,-0.441215 -0.310859,-0.441212 -0.310859,-1.387152 0,-0.959309 0.334253,-1.413892 0.337597,-0.457929 1.02282,-0.457929 0.38439,0 0.665165,0.177153 0.284112,0.173812 0.437871,0.498039 h 0.0067 q 0,-0.100273 0.01337,-0.347625 0.01337,-0.247347 0.02675,-0.270744 h 0.571572 q -0.02004,0.180498 -0.02004,0.748731 v 2.764278 q 0,1.524196 -1.514169,1.524196 z m 0.915857,-3.228894 q 0,-0.441211 -0.120331,-0.758753 -0.120335,-0.320885 -0.340937,-0.488011 -0.217268,-0.170467 -0.4947,-0.170467 -0.461268,0 -0.67185,0.334252 -0.210577,0.334253 -0.210577,1.082979 0,0.742045 0.197209,1.066272 0.19721,0.324226 0.675192,0.324226 0.284116,0 0.504726,-0.167126 0.220602,-0.167127 0.340937,-0.477987 0.120331,-0.314195 0.120331,-0.745385 z"
       id="path3347"
       style="font-size:15px;font-family:Arial, Helvetica, sans-serif;dominant-baseline:text-before-edge;white-space:pre;fill:#000000;stroke-width:0.456368" /></g></svg>
